<?xml version="1.0" encoding="UTF-8"?>
<!-- Generator: visioncortex VTracer 0.6.3 -->
<svg version="1.1" xmlns="http://www.w3.org/2000/svg" width="1280" height="1280">
<path d="M0 0 C10.13 -0.05 20.26 -0.08 30.38 -0.1 C35.09 -0.11 39.79 -0.13 44.49 -0.15 C49.04 -0.17 53.58 -0.18 58.13 -0.19 C59.86 -0.19 61.58 -0.2 63.31 -0.21 C72.07 -0.26 80.47 -0.25 89 2 C90.53 2.33 92.06 2.65 93.6 2.96 C101.21 4.61 108.71 6.23 116 9 C117.21 9.44 118.42 9.89 119.67 10.34 C135.83 16.29 150.68 23.17 165.25 32.36 C167.95 34.1 167.95 34.1 171 35 C171 35.66 171 36.32 171 37 C171.54 37.25 172.07 37.49 172.62 37.75 C177.77 40.46 182.11 43.84 186.39 47.73 C188.09 49.22 188.09 49.22 191 50 C191 50.66 191 51.32 191 52 C191.57 52.24 192.14 52.47 192.72 52.71 C195.53 54.3 197.3 56.23 199.48 58.61 C200.34 59.51 201.19 60.41 202.07 61.33 C203.86 63.23 205.63 65.15 207.38 67.08 C211.68 71.96 211.68 71.96 217.42 74.39 C219.87 74.16 219.87 74.16 223 73 C223 72.67 223 72.34 223 72 C223.61 71.95 224.23 71.9 224.86 71.85 C226.08 71.74 226.08 71.74 227.31 71.62 C228.11 71.56 228.91 71.49 229.74 71.41 C232.27 71.1 232.27 71.1 235 69 C241.49 67.75 241.49 67.75 244 69 C244 68.34 244 67.68 244 67 C244.78 66.95 245.56 66.9 246.37 66.85 C247.38 66.78 248.39 66.7 249.44 66.62 C250.45 66.56 251.46 66.49 252.5 66.41 C253.32 66.28 254.15 66.14 255 66 C255.33 65.34 255.66 64.68 256 64 C263.18 62.73 263.18 62.73 267 64 C267 63.34 267 62.68 267 62 C267.8 61.95 268.59 61.9 269.41 61.85 C275.81 61.46 275.81 61.46 282 60 C286.12 58.63 290.17 58.51 294.49 58.25 C296.94 58.27 296.94 58.27 298 57 C300.29 56.76 302.58 56.59 304.88 56.44 C306.13 56.35 307.39 56.27 308.68 56.18 C310.78 56.07 312.89 56 315 56 C316.84 55.7 318.67 55.39 320.5 55.06 C333.87 52.96 347.49 52.8 361 53 C361 52.67 361 52.34 361 52 C370.24 52 379.48 52 389 52 C389 52.33 389 52.66 389 53 C390.09 52.99 390.09 52.99 391.21 52.97 C398.45 52.92 405.59 53.21 412.81 53.81 C414.42 53.94 414.42 53.94 416.06 54.08 C424.43 54.79 432.74 55.81 441.06 56.96 C447.5 57.85 453.86 58.43 460.36 58.69 C463 59 463 59 464.85 59.96 C467.29 61.14 469.4 61.53 472.08 61.93 C473.07 62.08 474.05 62.24 475.07 62.39 C476.12 62.55 477.17 62.71 478.25 62.88 C489.67 64.69 500.7 67.15 511.8 70.4 C512.61 70.63 513.43 70.87 514.27 71.11 C515.84 71.57 517.41 72.03 518.98 72.51 C523.09 73.72 525.92 74.4 530 73 C532.08 71.21 533.91 69.46 535.78 67.47 C536.32 66.92 536.85 66.37 537.41 65.8 C539.11 64.04 540.81 62.27 542.5 60.5 C544.73 58.17 546.97 55.84 549.22 53.53 C549.72 52.99 550.23 52.45 550.75 51.9 C553.75 48.82 555.75 47.54 560 47 C561.15 45.03 561.15 45.03 562 43 C563.49 42.51 563.49 42.51 565 42 C565 41.34 565 40.68 565 40 C566.65 40 568.3 40 570 40 C570.21 39.42 570.41 38.84 570.62 38.25 C572.52 35.16 574.9 33.81 578 32 C578.66 32 579.32 32 580 32 C580 31.34 580 30.68 580 30 C581.65 30 583.3 30 585 30 C585.33 29.01 585.66 28.02 586 27 C587.32 27 588.64 27 590 27 C590.27 26.36 590.54 25.72 590.81 25.06 C592.52 22.1 594.7 22.09 597.88 21.12 C601.01 20.12 601.01 20.12 603.62 18.38 C606 17 606 17 610 17 C610 16.34 610 15.68 610 15 C610.68 14.9 611.36 14.79 612.06 14.69 C615.59 13.86 618.69 12.45 622 11 C622.68 10.84 623.36 10.67 624.06 10.5 C626.19 10.04 626.19 10.04 628.62 8.56 C632.36 6.83 635.8 6.13 639.83 5.43 C642.04 5.09 642.04 5.09 644 4 C646 3.96 648 3.96 650 4 C650.33 3.34 650.66 2.68 651 2 C651 2.66 651 3.32 651 4 C651.66 4 652.32 4 653 4 C653 3.34 653 2.68 653 2 C654.26 1.91 654.26 1.91 655.55 1.82 C656.65 1.73 657.75 1.65 658.88 1.56 C659.97 1.48 661.06 1.4 662.18 1.32 C664.95 1.17 664.95 1.17 667 0 C669.47 -0.09 671.92 -0.13 674.39 -0.11 C675.53 -0.11 675.53 -0.11 676.69 -0.11 C679.21 -0.11 681.74 -0.11 684.26 -0.1 C686 -0.1 687.75 -0.09 689.5 -0.09 C694.1 -0.09 698.7 -0.08 703.3 -0.07 C707.99 -0.06 712.68 -0.05 717.37 -0.05 C726.58 -0.04 735.79 -0.02 745 0 C746.28 2.51 747.55 5.02 748.82 7.54 C749.36 8.59 749.36 8.59 749.9 9.66 C752.68 15.17 754.93 20.71 756.99 26.52 C757.86 29.12 757.86 29.12 760 31 C760.7 32.88 761.34 34.78 761.94 36.69 C763.04 40.12 764.13 43.47 765.62 46.75 C766.92 49.81 767.72 52.67 768.46 55.89 C769.04 58.17 769.78 60.35 770.56 62.56 C771.87 66.35 772.44 70.03 773 74 C773.66 74.99 774.32 75.98 775 77 C776.64 83.34 777.26 89.87 777.66 96.39 C777.91 99.06 777.91 99.06 779 101.7 C780.35 106.14 780.42 110.38 780.56 115 C780.62 116.75 780.69 118.5 780.75 120.25 C780.79 121.4 780.79 121.4 780.83 122.58 C780.95 125.01 780.95 125.01 781.5 127.4 C782.23 132.63 782.16 137.82 782.17 143.09 C782.18 144.31 782.19 145.52 782.19 146.77 C782.21 149.4 782.22 152.03 782.23 154.66 C782.25 158.82 782.27 162.98 782.29 167.14 C782.37 178.97 782.43 190.8 782.48 202.62 C782.51 209.16 782.54 215.7 782.58 222.24 C782.61 226.37 782.63 230.51 782.64 234.64 C782.65 237.82 782.67 240.99 782.7 244.17 C782.7 245.88 782.7 245.88 782.7 247.64 C782.71 248.68 782.72 249.73 782.73 250.81 C782.73 252.18 782.73 252.18 782.74 253.57 C783.02 256.16 783.8 257.72 785 260 C785 260.99 785 261.98 785 263 C785.61 263.23 786.21 263.46 786.84 263.7 C789.59 265.35 790.24 266.86 791.56 269.75 C791.98 270.64 792.41 271.54 792.84 272.46 C793.22 273.3 793.61 274.14 794 275 C795.93 279.08 795.93 279.08 798.42 282.82 C800.2 285.28 801.43 287.74 802.69 290.5 C803.12 291.44 803.56 292.38 804.01 293.34 C805 296 805 296 805 300 C805.66 300 806.32 300 807 300 C807.91 302.27 808.82 304.54 809.72 306.81 C810.65 309.11 811.57 311.42 812.5 313.72 C813.54 316.33 814.58 318.93 815.62 321.54 C816.38 323.43 817.13 325.33 817.91 327.21 C820.13 332.76 821.54 338.54 823.04 344.32 C823.67 346.73 824.33 349.14 825.02 351.54 C826.3 356.06 827.3 360.62 828.32 365.21 C828.87 367.93 828.87 367.93 830 370 C830.31 372.56 830.51 375.12 830.72 377.69 C830.87 380.02 830.87 380.02 832 382 C832.28 384.92 832.45 387.84 832.62 390.76 C832.91 394.04 832.91 394.04 834 397.24 C835.02 401.09 835.33 404.42 835.45 408.4 C835.48 409.45 835.48 409.45 835.52 410.52 C835.58 412.81 835.64 415.09 835.69 417.38 C835.71 418.16 835.73 418.94 835.75 419.75 C836.04 431.63 836.02 443.49 835.69 455.38 C835.67 456.08 835.65 456.78 835.64 457.5 C835.58 459.49 835.52 461.47 835.45 463.46 C835.41 464.58 835.37 465.7 835.33 466.86 C834.98 470.15 834.1 472.89 833 476 C832.74 478.41 832.56 480.83 832.44 483.25 C832.1 489.8 832.1 489.8 831 492 C830.44 495.37 829.97 498.75 829.5 502.13 C829 505 829 505 828 506 C827.53 508.48 827.1 510.95 826.69 513.44 C825.67 519.24 824.29 524.43 821.9 529.85 C821.05 531.88 820.49 533.79 820 535.94 C818.25 543.57 815.16 550.86 812 558 C809.28 564.31 806.64 570.65 804 577 C803.34 577 802.68 577 802 577 C801.81 578.08 801.81 578.08 801.62 579.19 C801.01 581.96 800.12 584.4 799 587 C798.34 587 797.68 587 797 587 C796.81 588.14 796.81 588.14 796.62 589.31 C796 592 796 592 794 595 C793.34 595 792.68 595 792 595 C791.9 595.7 791.79 596.4 791.69 597.12 C790.89 600.44 789.73 603.07 788 606 C787.01 606.33 786.02 606.66 785 607 C784.67 608.65 784.34 610.3 784 612 C783.34 612 782.68 612 782 612 C781.81 613.14 781.81 613.14 781.62 614.31 C781 617 781 617 779 620 C778.34 620 777.68 620 777 620 C776.94 620.72 776.88 621.44 776.81 622.19 C775.75 625.85 773.7 627.36 771 630 C770.54 631.24 770.54 631.24 770.06 632.5 C769 635 769 635 766.06 637.44 C762.79 640.18 761.85 642.23 760 646 C758.13 648.23 756.18 650.05 754 652 C753.34 652 752.68 652 752 652 C751.94 652.72 751.88 653.44 751.81 654.19 C750.77 657.8 748.64 659.47 746 662 C744.61 663.39 743.22 664.79 741.84 666.19 C737.5 670.57 733.16 674.94 728.81 679.3 C726.93 681.19 725.06 683.07 723.19 684.96 C720.49 687.69 717.78 690.41 715.06 693.13 C714.23 693.98 713.4 694.82 712.54 695.69 C711.75 696.47 710.97 697.26 710.16 698.07 C709.48 698.76 708.79 699.44 708.09 700.15 C705.86 702.12 703.56 703.51 701 705 C699.16 706.79 697.46 708.66 695.75 710.57 C694 712 694 712 690 712 C689.67 712.99 689.34 713.98 689 715 C685.13 718.98 680.84 722.29 676 725 C675.34 725.66 674.68 726.32 674 727 C672.68 727 671.36 727 670 727 C669.79 727.6 669.59 728.2 669.38 728.81 C667.49 731.81 665.17 732.51 662 734 C661.2 734.84 661.2 734.84 660.38 735.69 C659 737 659 737 655 737 C654.79 737.6 654.59 738.2 654.38 738.81 C652.46 741.86 650.26 742.49 647 744 C644.95 745.31 642.94 746.65 640.93 748.01 C639 749 639 749 635 749 C634.67 749.99 634.34 750.98 634 752 C632.68 752 631.36 752 630 752 C629.67 752.99 629.34 753.98 629 755 C627.68 755.37 626.34 755.69 625 756 C624.32 756.52 623.64 757.03 622.94 757.56 C621 759 621 759 618 759 C618 759.66 618 760.32 618 761 C611.38 764 611.38 764 608 764 C608 764.66 608 765.32 608 766 C605.36 766.33 602.72 766.66 600 767 C599.67 767.99 599.34 768.98 599 770 C597.68 769.67 596.36 769.34 595 769 C594.67 769.99 594.34 770.98 594 772 C590.68 773.71 588.82 774 585 774 C585 774.66 585 775.32 585 776 C582.69 776.33 580.38 776.66 578 777 C578 777.66 578 778.32 578 779 C576.35 779 574.7 779 573 779 C573 779.66 573 780.32 573 781 C570.36 781.33 567.72 781.66 565 782 C565 782.66 565 783.32 565 784 C564.03 784.27 563.06 784.54 562.06 784.81 C557.66 786.07 553.33 787.53 549 789 C551.16 792.98 553.66 795.82 556.94 798.94 C562.42 804.29 562.42 804.29 564.31 807.31 C565.97 810.17 565.97 810.17 568.75 812.75 C569.49 813.49 570.24 814.24 571 815 C571 815.66 571 816.32 571 817 C571.66 817 572.32 817 573 817 C575 820 575 820 575 823 C575.6 823.21 576.2 823.41 576.81 823.62 C579.83 825.52 580.53 827.8 582 831 C582.56 831.72 583.11 832.44 583.69 833.19 C585 835 585 835 585 838 C585.99 838.33 586.98 838.66 588 839 C587.67 840.32 587.34 841.64 587 843 C587.57 843.18 588.15 843.37 588.74 843.55 C592.05 845.67 593.43 848.73 595.19 852.12 C595.54 852.76 595.9 853.4 596.26 854.06 C598.74 858.75 599.61 862.72 600 868 C600.99 868.33 601.98 868.66 603 869 C602.67 870.32 602.34 871.64 602 873 C602.66 873 603.32 873 604 873 C606.08 878.41 607.94 883.81 609.56 889.38 C609.78 890.11 610 890.85 610.22 891.61 C611.61 896.44 612.79 901.26 613.64 906.21 C613.94 908.09 613.94 908.09 615 910 C616.88 919.75 617.28 929.29 617.24 939.2 C617.24 940.68 617.24 942.15 617.25 943.63 C617.25 947.66 617.24 951.68 617.23 955.71 C617.22 960.13 617.23 964.55 617.23 968.97 C617.23 977.53 617.22 986.1 617.21 994.66 C617.19 1004.58 617.19 1014.49 617.19 1024.41 C617.18 1050.56 617.15 1076.72 617.12 1102.88 C617.08 1161.33 617.04 1219.78 617 1280 C455.3 1280 293.6 1280 127 1280 C126.5 1213.67 126.5 1213.67 126 1146 C122.69 1144.34 118.99 1144.83 115.34 1144.81 C114.45 1144.8 113.55 1144.79 112.63 1144.79 C110.68 1144.77 108.73 1144.75 106.78 1144.74 C103.7 1144.72 100.62 1144.69 97.54 1144.66 C89.9 1144.59 82.25 1144.53 74.6 1144.47 C68.14 1144.42 61.68 1144.37 55.22 1144.31 C52.17 1144.28 49.13 1144.26 46.09 1144.24 C44.23 1144.22 42.38 1144.21 40.53 1144.19 C39.67 1144.19 38.82 1144.18 37.94 1144.18 C32.11 1144.11 32.11 1144.11 31 1143 C27.88 1142.76 24.76 1142.6 21.63 1142.48 C17.89 1142.29 15.26 1141.82 12 1140 C9.98 1139.66 9.98 1139.66 7.88 1139.56 C2.68 1139.1 -2.07 1137.64 -7 1136 C-7 1135.34 -7 1134.68 -7 1134 C-7.8 1134.06 -8.61 1134.12 -9.44 1134.19 C-13.98 1133.95 -17.77 1132.58 -22 1131 C-22 1130.34 -22 1129.68 -22 1129 C-22.72 1128.88 -23.44 1128.75 -24.19 1128.62 C-26.96 1128.01 -29.4 1127.12 -32 1126 C-32 1125.34 -32 1124.68 -32 1124 C-33.65 1124 -35.3 1124 -37 1124 C-37 1123.34 -37 1122.68 -37 1122 C-38.65 1121.67 -40.3 1121.34 -42 1121 C-42 1120.34 -42 1119.68 -42 1119 C-43.05 1118.88 -43.05 1118.88 -44.12 1118.75 C-47.71 1117.81 -49.97 1116.14 -53 1114 C-54.35 1113.16 -55.7 1112.33 -57.06 1111.5 C-60.97 1109.06 -64.47 1106.37 -67.91 1103.3 C-72.12 1099.52 -72.12 1099.52 -76.81 1096.38 C-79.53 1094.66 -80.41 1092.76 -82 1090 C-83.33 1088.99 -84.66 1087.99 -86 1087 C-87 1085.85 -87.97 1084.68 -88.94 1083.5 C-91.36 1080.57 -93.71 1078.92 -97 1077 C-97.42 1076.14 -97.42 1076.14 -97.86 1075.26 C-99.88 1071.27 -103.08 1068.11 -106 1064.75 C-107.99 1062.01 -108.66 1060.33 -109 1057 C-109.99 1056.67 -110.98 1056.34 -112 1056 C-113.41 1053.68 -114.66 1051.42 -115.88 1049 C-116.58 1047.63 -117.29 1046.25 -118 1044.88 C-118.34 1044.22 -118.68 1043.55 -119.04 1042.86 C-120.26 1040.5 -121.56 1038.19 -122.88 1035.88 C-124.5 1032.97 -125.87 1030.14 -127 1027 C-127.45 1025.78 -127.91 1024.57 -128.38 1023.31 C-128.63 1022.63 -128.89 1021.94 -129.15 1021.24 C-130.07 1018.81 -131.03 1016.41 -132 1014 C-134.33 1008.19 -136.56 1002.39 -138.5 996.44 C-139.43 993.59 -140.46 990.86 -141.69 988.12 C-143 985 -143 985 -143 982 C-143.66 981.67 -144.32 981.34 -145 981 C-145.71 978.81 -145.71 978.81 -146.38 976 C-147.54 971.45 -149.05 967.4 -151.04 963.16 C-151.97 961.07 -152.69 959 -153.38 956.81 C-154.7 952.68 -156.31 948.68 -158 944.69 C-158.5 943.52 -158.99 942.34 -159.5 941.14 C-160.79 938.43 -162.19 936.36 -164 934 C-164 933.34 -164 932.68 -164 932 C-165.65 931.67 -167.3 931.34 -169 931 C-169 930.34 -169 929.68 -169 929 C-173.19 928 -177.19 927.83 -181.5 927.75 C-182.96 927.72 -184.42 927.69 -185.88 927.65 C-188.16 927.61 -190.44 927.56 -192.72 927.52 C-194.94 927.48 -197.16 927.43 -199.37 927.38 C-200.69 927.35 -202.01 927.33 -203.37 927.3 C-206.91 927.01 -209.69 926.24 -213 925 C-215.27 924.67 -215.27 924.67 -217.44 924.56 C-221.76 924.14 -225.05 922.87 -229 921 C-230.71 920.33 -232.41 919.66 -234.12 919 C-237.62 917.6 -240.94 916.24 -244 914 C-244 913.34 -244 912.68 -244 912 C-245.11 911.87 -245.11 911.87 -246.24 911.73 C-249.51 910.87 -250.76 909.72 -253.1 907.32 C-253.84 906.58 -254.58 905.83 -255.34 905.06 C-256.09 904.28 -256.85 903.5 -257.62 902.69 C-258.39 901.91 -259.15 901.14 -259.94 900.35 C-270.67 889.4 -277.62 875.87 -280.57 860.79 C-280.84 858.99 -280.84 858.99 -282 858 C-282.1 856.05 -282.13 854.09 -282.13 852.14 C-282.13 850.94 -282.14 849.74 -282.14 848.51 C-282.13 847.25 -282.13 845.99 -282.12 844.69 C-282.13 843.44 -282.13 842.19 -282.14 840.9 C-282.14 839.7 -282.13 838.5 -282.13 837.26 C-282.13 836.16 -282.13 835.05 -282.13 833.92 C-282.02 831.4 -281.69 829.4 -281 827 C-280.65 824.67 -280.31 822.34 -280 820 C-279.34 820 -278.68 820 -278 820 C-278.03 818.58 -278.03 818.58 -278.06 817.12 C-278 814 -278 814 -277 812 C-276.34 812 -275.68 812 -275 812 C-275.04 811.22 -275.08 810.43 -275.12 809.62 C-275 807 -275 807 -273 805 C-272.67 804.01 -272.34 803.02 -272 802 C-271.34 802 -270.68 802 -270 802 C-269.98 801.32 -269.96 800.64 -269.94 799.94 C-268.7 796.07 -266.48 794.3 -263.5 791.65 C-261.66 790 -261.66 790 -262 787 C-261.34 787 -260.68 787 -260 787 C-260 786.34 -260 785.68 -260 785 C-259.13 784.63 -258.27 784.26 -257.38 783.88 C-254 782 -252 780.16 -249.49 777.3 C-248 776 -248 776 -245.95 775.51 C-243.6 775.13 -243.6 775.13 -242 772 C-240.36 771.27 -238.69 770.61 -237 770 C-236.07 769.5 -235.14 769.01 -234.19 768.5 C-231.11 767.05 -228.33 766.22 -225.03 765.48 C-223.03 765.01 -221.09 764.42 -219.12 763.81 C-216 763 -216 763 -214 764 C-214 763.34 -214 762.68 -214 762 C-201.61 761.93 -189.22 761.88 -176.84 761.84 C-171.08 761.83 -165.33 761.81 -159.57 761.77 C-154.01 761.74 -148.45 761.72 -142.88 761.72 C-140.77 761.71 -138.66 761.7 -136.55 761.68 C-116.08 761.53 -98.4 764.75 -79.46 772.95 C-76.94 774.07 -76.94 774.07 -74 775 C-74 775.66 -74 776.32 -74 777 C-72.91 777.27 -71.81 777.54 -70.69 777.81 C-67.03 778.99 -66.48 779.46 -64 782 C-62.61 782.81 -61.19 783.58 -59.75 784.31 C-55.91 786.38 -52.79 788.69 -49.61 791.67 C-47.85 793.13 -46.07 794.05 -44 795 C-44 795.66 -44 796.32 -44 797 C-43.34 797 -42.68 797 -42 797 C-42 797.66 -42 798.32 -42 799 C-41.01 799.33 -40.02 799.66 -39 800 C-39 800.66 -39 801.32 -39 802 C-38.4 802.23 -37.81 802.47 -37.2 802.71 C-34.49 804.3 -33.49 805.95 -31.88 808.62 C-30.45 811.04 -30.45 811.04 -29 813 C-28.34 813 -27.68 813 -27 813 C-25.15 815.58 -24.08 817.54 -23.56 820.69 C-23.38 821.45 -23.19 822.21 -23 823 C-22.37 823.3 -21.75 823.61 -21.1 823.92 C-18.64 825.18 -18.06 826.1 -16.82 828.53 C-16.45 829.23 -16.08 829.94 -15.7 830.66 C-15.33 831.41 -14.95 832.16 -14.56 832.94 C-14.17 833.7 -13.78 834.47 -13.38 835.25 C-12.24 837.5 -11.11 839.75 -10 842 C-9.44 843.12 -8.88 844.24 -8.3 845.39 C-6.17 849.86 -4.72 852.98 -5 858 C-4.01 858.33 -3.02 858.66 -2 859 C-1.23 860.64 -1.23 860.64 -0.62 862.81 C1.65 870.3 4.64 877.53 8.31 884.44 C9.87 887.73 10.44 889.44 10 893 C10.99 893.33 11.98 893.66 13 894 C13.84 895.82 13.84 895.82 14.5 898.12 C15.7 902.24 17.27 906.07 19 910 C19.52 911.19 20.04 912.38 20.58 913.61 C26.22 926.22 32.42 937.34 45 944 C45 944.66 45 945.32 45 946 C45.72 946.12 46.44 946.25 47.19 946.38 C50 947 50 947 52.31 947.94 C60.63 951.23 68.48 951.34 77.34 951.41 C78.72 951.43 80.1 951.45 81.48 951.47 C85.08 951.52 88.69 951.56 92.29 951.6 C95.98 951.64 99.66 951.69 103.35 951.74 C110.57 951.84 117.78 951.92 125 952 C125.88 947.73 126.48 943.45 127 939.12 C127.61 934.07 128.28 929.04 129 924 C129.2 922.36 129.39 920.71 129.56 919.06 C129.65 918.29 129.73 917.52 129.82 916.72 C129.88 916.15 129.94 915.59 130 915 C130.66 915 131.32 915 132 915 C131.98 914.42 131.95 913.84 131.93 913.24 C131.82 908.32 132.28 904.66 134 900 C134.38 897.67 134.72 895.34 135 893 C135.66 893 136.32 893 137 893 C136.77 892.48 136.55 891.97 136.31 891.44 C135.93 888.42 136.9 886.63 138.17 883.93 C139.03 881.92 139.57 880 140.06 877.88 C140.82 874.72 141.77 871.98 143 869 C143 868.34 143 867.68 143 867 C143.66 867 144.32 867 145 867 C145.14 866.28 145.29 865.56 145.44 864.81 C145.96 862.21 146.48 859.6 147 857 C147.66 857 148.32 857 149 857 C149.4 855.36 149.4 855.36 149.81 853.69 C150.96 850.13 151.49 849.4 154 847 C154.35 845.34 154.68 843.67 155 842 C156.44 839.19 156.44 839.19 158 837 C158.66 837 159.32 837 160 837 C160.33 835.35 160.66 833.7 161 832 C161.66 832 162.32 832 163 832 C163.4 830.3 163.4 830.3 163.81 828.56 C164.2 827.39 164.6 826.21 165 825 C165.99 824.67 166.98 824.34 168 824 C168.12 823.44 168.25 822.89 168.38 822.31 C169.31 818.85 171.72 816.73 174 814 C174.27 813.2 174.54 812.39 174.81 811.56 C176.43 808.07 178.92 806.27 181.84 803.82 C187.06 799.41 191.44 794.84 195 789 C194.44 788.82 193.89 788.64 193.31 788.45 C184.99 785.71 176.91 782.58 168.83 779.18 C166.23 778.1 163.62 777.04 161 776 C161 775.34 161 774.68 161 774 C159.35 774 157.7 774 156 774 C156 773.34 156 772.68 156 772 C153.36 771.67 150.72 771.34 148 771 C148 770.34 148 769.68 148 769 C147.28 768.88 146.56 768.75 145.81 768.62 C143.04 768.01 140.6 767.12 138 766 C138 765.34 138 764.68 138 764 C137.28 763.88 136.56 763.75 135.81 763.62 C133.04 763.01 130.6 762.12 128 761 C128 760.34 128 759.68 128 759 C127.28 758.88 126.56 758.75 125.81 758.62 C123.04 758.01 120.6 757.12 118 756 C118 755.34 118 754.68 118 754 C117.22 753.92 116.43 753.84 115.62 753.75 C113 753 113 753 111.69 750.94 C111.46 750.3 111.23 749.66 111 749 C109.35 749 107.7 749 106 749 C106 748.34 106 747.68 106 747 C105.24 746.9 104.47 746.79 103.69 746.69 C100.71 745.93 100.06 745.15 98 743 C95.4 741.81 95.4 741.81 93 741 C93 740.34 93 739.68 93 739 C92.24 738.9 91.47 738.79 90.69 738.69 C87.65 737.91 87.12 737.2 85 735 C83.42 734.09 81.83 733.18 80.23 732.3 C77.38 730.64 74.63 728.87 71.88 727.06 C70.88 726.41 69.89 725.77 68.87 725.1 C65.94 722.96 63.55 720.57 61 718 C59.58 717.32 59.58 717.32 58.12 716.62 C54.55 714.77 52.4 712.51 49.65 709.62 C47.64 707.64 45.44 706.43 43 705 C38.41 701.26 34.12 697.24 30 693 C29.34 692.34 28.68 691.68 28 691 C27.34 690.01 26.68 689.02 26 688 C24.03 686.94 22.03 685.93 20 685 C20 684.34 20 683.68 20 683 C19.34 683 18.68 683 18 683 C16.38 681.62 16.38 681.62 15 680 C15 679.34 15 678.68 15 678 C14.34 678 13.68 678 13 678 C11.38 676.62 11.38 676.62 10 675 C10 674.34 10 673.68 10 673 C9.34 673 8.68 673 8 673 C7.01 671.56 7.01 671.56 5.91 669.54 C2.8 664.36 -1.27 660.47 -5.62 656.31 C-7.14 654.86 -8.66 653.39 -10.16 651.93 C-10.83 651.29 -11.49 650.66 -12.18 650 C-14.17 647.82 -15.52 645.55 -17 643 C-18.24 641.51 -18.24 641.51 -19.5 640 C-22 637 -22 637 -23.56 634.38 C-24.92 631.92 -24.92 631.92 -27 630 C-29.16 627.84 -30.5 625.66 -32 623 C-32.99 621.51 -32.99 621.51 -34 620 C-34 619.01 -34 618.02 -34 617 C-34.99 616.67 -35.98 616.34 -37 616 C-38.42 613.77 -39.7 611.58 -40.94 609.25 C-43.33 604.81 -45.78 600.91 -49 597 C-49.7 595.35 -50.37 593.68 -51 592 C-51.5 591.17 -51.99 590.35 -52.5 589.5 C-53.97 587.04 -54.94 584.66 -56 582 C-56.77 580.41 -57.57 578.83 -58.38 577.25 C-60.74 572.56 -62.92 567.82 -65 563 C-65.5 561.87 -65.99 560.73 -66.5 559.56 C-67 558.39 -67.49 557.21 -68 556 C-68.44 554.95 -68.44 554.95 -68.9 553.87 C-73.54 542.59 -77.12 531.05 -80.11 519.24 C-80.9 516.11 -80.9 516.11 -81.98 513.65 C-83.05 510.86 -83.66 508.22 -84.22 505.28 C-84.43 504.18 -84.64 503.08 -84.86 501.95 C-85.07 500.81 -85.28 499.67 -85.5 498.5 C-85.71 497.39 -85.93 496.28 -86.14 495.14 C-88.49 482.77 -90.26 470.57 -91.06 458 C-91.22 455.65 -91.38 453.29 -91.54 450.94 C-91.61 449.79 -91.68 448.64 -91.76 447.46 C-91.92 445.13 -92.11 442.8 -92.32 440.47 C-92.82 434.79 -93.16 429.7 -92 424.06 C-91.11 419.67 -91.06 416.39 -92 412 C-91.34 412 -90.68 412 -90 412 C-90.01 410.9 -90.02 409.81 -90.04 408.68 C-90.04 407.22 -90.05 405.77 -90.06 404.31 C-90.07 403.59 -90.08 402.87 -90.09 402.13 C-90.11 398.27 -89.89 394.75 -89 391 C-88.66 389 -88.33 387 -88 385 C-87.53 382.12 -87.05 379.25 -86.47 376.39 C-86.03 374.16 -85.71 371.95 -85.44 369.69 C-85.29 368.47 -85.15 367.25 -85 366 C-84.34 366 -83.68 366 -83 366 C-83.29 365.16 -83.29 365.16 -83.59 364.3 C-84.1 361.46 -83.55 359.85 -82.62 357.12 C-81.43 353.42 -80.51 349.87 -80 346 C-79.34 346 -78.68 346 -78 346 C-78.04 345.11 -78.08 344.23 -78.12 343.31 C-78 339.88 -77.35 338.13 -76 335 C-75.23 332.44 -74.5 329.88 -73.78 327.3 C-73 325 -73 325 -71 322 C-70.04 318.89 -69.17 315.81 -68.5 312.62 C-68.34 312.09 -68.17 311.55 -68 311 C-67.34 310.67 -66.68 310.34 -66 310 C-65.86 309.07 -65.71 308.14 -65.56 307.19 C-64.97 303.83 -64.06 302.6 -62 300 C-62 299.01 -62 298.02 -62 297 C-61.34 297 -60.68 297 -60 297 C-59.88 296.28 -59.75 295.56 -59.62 294.81 C-59.01 292.04 -58.12 289.6 -57 287 C-56.34 287 -55.68 287 -55 287 C-54.85 285.89 -54.85 285.89 -54.69 284.75 C-53.94 281.74 -52.86 280.44 -51 278 C-50 275.67 -48.99 273.34 -48 271 C-47.34 270.34 -46.68 269.68 -46 269 C-45.84 268.32 -45.67 267.64 -45.5 266.94 C-45.34 266.3 -45.17 265.66 -45 265 C-44.34 264.67 -43.68 264.34 -43 264 C-42.35 261.98 -42.35 261.98 -42 260 C-41.34 260 -40.68 260 -40 260 C-39.04 257.13 -38.87 255.3 -38.85 252.31 C-38.84 251.35 -38.83 250.38 -38.82 249.39 C-38.82 247.81 -38.82 247.81 -38.81 246.19 C-38.8 244.52 -38.8 244.52 -38.79 242.81 C-38.77 240.39 -38.75 237.96 -38.74 235.53 C-38.72 231.68 -38.69 227.83 -38.66 223.98 C-38.61 216.47 -38.56 208.97 -38.51 201.46 C-38.45 191.31 -38.38 181.15 -38.31 171 C-38.28 167.23 -38.26 163.46 -38.24 159.69 C-38.05 130.66 -38.05 130.66 -36.25 116.32 C-35.78 111.94 -35.55 107.53 -35.28 103.14 C-35.05 100.59 -34.68 98.44 -34 96 C-33.66 94.33 -33.33 92.67 -33 91 C-32.54 88.63 -32.07 86.29 -31.47 83.95 C-30.97 81.89 -30.68 79.86 -30.44 77.75 C-30.29 76.51 -30.15 75.28 -30 74 C-29.34 74 -28.68 74 -28 74 C-28.34 72.98 -28.34 72.98 -28.69 71.94 C-29.11 67.96 -27.65 65.61 -26 62 C-25.6 60.01 -25.25 58.01 -25 56 C-24.34 56 -23.68 56 -23 56 C-23.06 54.61 -23.06 54.61 -23.12 53.19 C-23 50 -23 50 -21 47 C-20.61 44.68 -20.27 42.34 -20 40 C-19.34 40 -18.68 40 -18 40 C-18 38.68 -18 37.36 -18 36 C-17.34 36 -16.68 36 -16 36 C-15.88 34.76 -15.75 33.52 -15.62 32.25 C-15.24 29.11 -14.68 26.73 -13 24 C-12.67 23.34 -12.34 22.68 -12 22 C-11.34 22 -10.68 22 -10 22 C-10.06 20.86 -10.06 20.86 -10.12 19.69 C-10 17 -10 17 -8 14 C-5.67 10.06 -3.57 6.32 -2 2 C-1.34 2 -0.68 2 0 2 C0 1.34 0 0.68 0 0 Z M35 53 C35 53.66 35 54.32 35 55 C35.66 54.67 36.32 54.34 37 54 C36.34 53.67 35.68 53.34 35 53 Z M35 57 C31.72 63.28 30.02 70.24 28 77 C27.72 77.89 27.44 78.79 27.15 79.71 C25.57 84.76 24.37 89.77 23.43 94.97 C23 97 23 97 22 99 C21.69 102.11 21.49 105.23 21.28 108.35 C21 111 21 111 20 112 C19.9 114.04 19.86 116.08 19.86 118.12 C19.85 119.09 19.85 119.09 19.84 120.08 C19.83 122.26 19.83 124.45 19.83 126.63 C19.82 128.19 19.81 129.75 19.81 131.31 C19.79 134.67 19.78 138.03 19.77 141.4 C19.75 146.72 19.73 152.04 19.71 157.36 C19.63 172.49 19.57 187.62 19.52 202.75 C19.49 211.1 19.46 219.44 19.42 227.79 C19.39 233.08 19.37 238.37 19.36 243.66 C19.35 246.95 19.33 250.24 19.31 253.53 C19.31 255.06 19.3 256.59 19.3 258.11 C19.3 260.2 19.29 262.28 19.27 264.37 C19.27 265.54 19.26 266.7 19.26 267.9 C19 271.03 18.43 273.22 17 276 C16.34 276.33 15.68 276.66 15 277 C13.96 278.98 12.97 280.98 12 283 C10.48 285.78 9.16 287.85 6.88 290.06 C4.86 292.14 4.57 293.25 4 296 C3.34 296.33 2.68 296.66 2 297 C1.26 298.73 1.26 298.73 0.5 300.5 C-1 304 -1 304 -3 305 C-3 306.65 -3 308.3 -3 310 C-3.66 310 -4.32 310 -5 310 C-5.12 310.64 -5.25 311.28 -5.38 311.94 C-5.58 312.62 -5.79 313.3 -6 314 C-6.66 314.33 -7.32 314.66 -8 315 C-8 316.65 -8 318.3 -8 320 C-8.66 320 -9.32 320 -10 320 C-10.27 320.68 -10.54 321.36 -10.81 322.06 C-11.62 324.05 -12.45 326.03 -13.31 328 C-18.77 340.72 -23.07 353.69 -26.29 367.15 C-26.81 369.23 -27.38 371.3 -27.99 373.36 C-29.23 377.81 -30.09 382.3 -30.94 386.83 C-31.9 391.8 -31.9 391.8 -33 394 C-33.21 396.14 -33.37 398.29 -33.5 400.44 C-33.72 403.89 -33.9 406.71 -35 410 C-35.09 411.72 -35.13 413.45 -35.13 415.17 C-35.13 416.76 -35.13 416.76 -35.14 418.37 C-35.14 419.51 -35.13 420.64 -35.13 421.82 C-35.13 422.98 -35.13 424.15 -35.14 425.35 C-35.14 427.82 -35.13 430.29 -35.13 432.76 C-35.13 436.55 -35.13 440.34 -35.14 444.13 C-35.14 446.53 -35.13 448.92 -35.13 451.32 C-35.14 453.03 -35.14 453.03 -35.14 454.77 C-35.14 455.82 -35.13 456.87 -35.13 457.96 C-35.13 458.88 -35.13 459.81 -35.13 460.77 C-35.15 463.04 -35.15 463.04 -34 465 C-33.72 468.54 -33.55 472.07 -33.38 475.62 C-33.03 478.77 -32.44 480.29 -31 483 C-30.62 485.54 -30.62 485.54 -30.44 488.19 C-30.45 491.4 -30.45 491.4 -29 494 C-28.75 495.19 -28.5 496.39 -28.25 497.62 C-26.9 503.93 -24.8 510 -22.74 516.11 C-22.06 518.13 -21.39 520.14 -20.72 522.16 C-18.69 528.22 -16.56 534.15 -14 540 C-13.68 540.82 -13.37 541.63 -13.04 542.47 C-11.64 545.87 -10.02 549.15 -8.38 552.44 C-8.03 553.13 -7.68 553.83 -7.32 554.54 C-4.29 560.56 -0.98 566.4 2.43 572.21 C4 575 4 575 5 578 C5.43 578.42 5.87 578.85 6.31 579.28 C9.15 582.17 10.99 585.79 13.04 589.26 C14.8 592.2 16.56 594.62 19 597 C19.33 597.99 19.66 598.98 20 600 C20.66 600 21.32 600 22 600 C23.15 602.3 24.26 604.59 25.31 606.94 C27.16 610.29 29.24 612.37 32 615 C34.16 617.54 36.29 620.1 38.36 622.71 C39.53 624.18 40.76 625.59 42 627 C42.66 627 43.32 627 44 627 C44.23 627.56 44.47 628.11 44.7 628.69 C46.34 631.6 48.37 633.63 50.73 635.99 C51.19 636.46 51.66 636.93 52.14 637.41 C53.13 638.4 54.12 639.39 55.11 640.37 C56.61 641.86 58.09 643.35 59.57 644.85 C64.26 649.54 68.95 653.94 74.35 657.79 C76.55 659.4 78.39 661.26 80.25 663.25 C82.73 665.9 84.76 667.43 88 669 C89.98 670.4 91.94 671.85 93.88 673.31 C94.41 673.72 94.94 674.12 95.49 674.53 C98.2 676.59 100.86 678.67 103.44 680.88 C105.87 682.89 108.26 684.45 111 686 C112.11 686.68 112.11 686.68 113.25 687.38 C114.91 688.36 116.58 689.32 118.28 690.23 C119.1 690.67 119.91 691.11 120.75 691.56 C121.53 691.98 122.31 692.39 123.11 692.82 C125 694 125 694 126 696 C127.15 696.33 128.31 696.66 129.5 697 C130.65 697.33 131.81 697.66 133 698 C133.33 698.66 133.66 699.32 134 700 C138 702.66 142.32 704.7 146.62 706.81 C152.43 709.68 158.14 712.66 163.77 715.87 C165.88 717.05 165.88 717.05 167.9 717.45 C172.15 718.57 175.9 721.17 179.71 723.31 C182.79 724.89 185.7 725.95 189 727 C192.15 728.27 195.3 729.56 198.43 730.88 C202.3 732.46 205.89 733.35 210 734 C212.08 734.95 212.08 734.95 214 736 C220.89 738.87 227.91 740.85 235.17 742.52 C238.53 743.31 241.71 744.23 244.92 745.5 C249.22 747.17 253.55 748.07 258.06 748.94 C265.4 750.41 272.6 752.14 279.8 754.17 C282.86 754.96 285.88 755.48 289 756 C291.8 756.64 294.59 757.35 297.38 758.06 C298.11 758.25 298.85 758.44 299.61 758.63 C301.4 759.08 303.2 759.54 305 760 C305 762 305 762 303.57 763.51 C302.95 764.04 302.33 764.58 301.69 765.12 C300.77 765.93 300.77 765.93 299.82 766.76 C298 768 298 768 295 768 C295.33 768.99 295.66 769.98 296 771 C286.7 780.42 277.38 789.83 268.04 799.21 C263.71 803.57 259.38 807.94 255.06 812.31 C250.9 816.53 246.72 820.74 242.54 824.94 C240.94 826.54 239.35 828.16 237.76 829.77 C235.54 832.03 233.3 834.27 231.06 836.5 C230.4 837.18 229.75 837.86 229.07 838.56 C228.46 839.16 227.84 839.76 227.21 840.39 C226.69 840.92 226.16 841.45 225.62 842 C224 843 224 843 221.8 842.66 C221.21 842.44 220.61 842.23 220 842 C220 842.66 220 843.32 220 844 C219.34 844 218.68 844 218 844 C218.23 844.56 218.45 845.11 218.69 845.69 C219.14 849.01 217.94 850.33 216 853 C215.34 853.64 214.68 854.28 214 854.94 C211.3 857.72 209 861.01 209 865 C208.34 865 207.68 865 207 865 C206.01 868.3 205.02 871.6 204 875 C203.34 875 202.68 875 202 875 C201.75 875.64 201.49 876.28 201.23 876.94 C198.2 884.57 198.2 884.57 196.5 888.31 C192.73 897.57 190.31 907.29 188 917 C187.74 918.03 187.48 919.05 187.22 920.11 C185.44 927.41 184.3 934.63 183.43 942.08 C183 945 183 945 182 946 C181.81 948.67 181.67 951.33 181.56 954 C181.26 960.23 180.57 965.95 179 972 C179 972.99 179 973.98 179 975 C178.34 975 177.68 975 177 975 C176.73 975.63 176.46 976.26 176.19 976.91 C173.31 983.19 169.89 989.1 164 993 C161.75 992.71 161.75 992.71 160 992 C160 992.66 160 993.32 160 994 C159.01 994.33 158.02 994.66 157 995 C157.66 995.99 158.32 996.98 159 998 C158.04 998.19 158.04 998.19 157.06 998.38 C156.38 998.58 155.7 998.79 155 999 C154.67 999.66 154.34 1000.32 154 1001 C152.67 1001.34 151.34 1001.68 150 1002 C149.34 1002.66 148.68 1003.32 148 1004 C147.01 1004 146.02 1004 145 1004 C145 1004.66 145 1005.32 145 1006 C135.17 1006.76 125.43 1007.15 115.57 1007.13 C114.26 1007.13 112.94 1007.13 111.59 1007.14 C108.83 1007.14 106.07 1007.14 103.31 1007.13 C99.83 1007.12 96.35 1007.13 92.87 1007.13 C52.45 1007.19 52.45 1007.19 47 1004 C41.76 1002.52 36.39 1001.69 31 1001 C31 1000.34 31 999.68 31 999 C30.04 998.71 30.04 998.71 29.07 998.41 C27.83 998.02 27.83 998.02 26.56 997.62 C25.74 997.37 24.92 997.11 24.07 996.85 C22 996 22 996 21 994 C19.35 993.33 17.7 992.65 16.04 991.98 C11.71 989.9 7.78 986.8 4.4 983.39 C2.99 981.87 2.99 981.87 0.81 980.81 C-6.37 976.18 -11.32 969.46 -16.18 962.54 C-17.66 960.47 -19.18 958.58 -20.88 956.69 C-23.12 953.85 -24.09 951.48 -25 948 C-25.66 948 -26.32 948 -27 948 C-26.67 947.01 -26.34 946.02 -26 945 C-26.66 945 -27.32 945 -28 945 C-28.08 944.2 -28.16 943.39 -28.25 942.56 C-29.42 937.02 -31.73 932.07 -34.69 927.25 C-36 925 -36 925 -36.44 922.75 C-37.29 918.6 -38.96 914.72 -41 911 C-41.66 910.67 -42.32 910.34 -43 910 C-43.12 909.17 -43.25 908.35 -43.38 907.5 C-44.19 902.94 -46.06 899.17 -48 895 C-48.68 893.34 -49.35 891.67 -50 890 C-50.66 890 -51.32 890 -52 890 C-51.67 889.01 -51.34 888.02 -51 887 C-51.95 884.97 -52.95 882.98 -54 881 C-54.7 879.01 -55.38 877.01 -56 875 C-56.66 875 -57.32 875 -58 875 C-58.15 873.73 -58.15 873.73 -58.31 872.44 C-59.57 866.13 -62.37 861.24 -66 856 C-66.72 854.77 -67.44 853.55 -68.15 852.32 C-71.11 847.58 -74.74 843.75 -78.69 839.81 C-79.34 839.13 -80 838.44 -80.68 837.74 C-85.01 833.39 -89.19 830.58 -94.81 828.11 C-97.03 826.98 -98.28 825.77 -100 824 C-102.97 822.86 -102.97 822.86 -106.38 822 C-107.5 821.69 -108.62 821.38 -109.77 821.06 C-110.42 820.9 -111.07 820.74 -111.74 820.57 C-113.38 820.16 -115.02 819.71 -116.64 819.25 C-126 816.8 -134.81 816.56 -144.39 816.6 C-146.04 816.6 -147.68 816.6 -149.33 816.59 C-152.75 816.59 -156.17 816.59 -159.58 816.61 C-163.95 816.63 -168.31 816.62 -172.68 816.6 C-176.06 816.59 -179.45 816.59 -182.83 816.6 C-184.44 816.6 -186.05 816.6 -187.66 816.59 C-198.28 816.55 -206.39 817.01 -215.31 823.5 C-216.13 824.09 -216.95 824.68 -217.8 825.28 C-219.71 826.77 -221.44 828.15 -223 830 C-223.25 832.63 -223.25 832.63 -223 835 C-223.66 835 -224.32 835 -225 835 C-225.05 837.9 -225.09 840.79 -225.12 843.69 C-225.15 844.91 -225.15 844.91 -225.18 846.16 C-225.22 851.86 -224.86 855.85 -221 860.31 C-219.18 862.21 -219.18 862.21 -217 862 C-217 862.66 -217 863.32 -217 864 C-215.5 865.34 -215.5 865.34 -213.5 866.56 C-212.85 867 -212.2 867.43 -211.53 867.88 C-205.81 870.41 -199.69 870.04 -193.56 869.81 C-173.6 869.52 -153.49 873.34 -137 885 C-136.39 885.4 -135.79 885.81 -135.16 886.22 C-120.94 896.18 -111.41 908.85 -105.93 925.29 C-104.91 928.27 -103.73 931.16 -102.5 934.06 C-99.44 941.31 -96.49 948.53 -94 956 C-93.5 957.15 -93.01 958.31 -92.5 959.5 C-91.15 962.64 -90.04 965.75 -89 969 C-87.53 973.58 -85.82 978.04 -84 982.5 C-82.18 986.96 -80.51 991.43 -79 996 C-78.48 997.18 -77.97 998.35 -77.44 999.56 C-76.22 1002.46 -75.61 1004.95 -75 1008 C-74.34 1008.66 -73.68 1009.32 -73 1010 C-72.16 1012.01 -71.48 1014.06 -70.78 1016.12 C-70.06 1018.2 -70.06 1018.2 -68 1020 C-68 1020.99 -68 1021.98 -68 1023 C-66.85 1024.18 -65.7 1025.36 -64.5 1026.48 C-60.69 1030.34 -57.65 1034.94 -54.75 1039.5 C-54.17 1040.33 -53.59 1041.15 -53 1042 C-52.34 1042 -51.68 1042 -51 1042 C-50.79 1042.54 -50.59 1043.07 -50.38 1043.62 C-48.47 1046.92 -45.95 1049.59 -43 1052 C-42.34 1052 -41.68 1052 -41 1052 C-40.75 1052.6 -40.49 1053.2 -40.23 1053.81 C-38.85 1056.27 -37.54 1057.37 -35.25 1059 C-34.54 1059.51 -33.82 1060.02 -33.09 1060.55 C-26.08 1066.22 -26.08 1066.22 -18 1069 C-17.67 1069.66 -17.34 1070.32 -17 1071 C-1.78 1080.27 18.02 1086.9 35.88 1087.62 C36.7 1087.66 37.52 1087.7 38.36 1087.74 C46.39 1088.08 54.42 1088.1 62.46 1088.04 C65.02 1088.03 67.58 1088.02 70.15 1088.01 C77.42 1087.98 84.69 1087.95 91.96 1087.9 C96.45 1087.88 100.94 1087.86 105.43 1087.85 C107.12 1087.84 108.81 1087.83 110.5 1087.82 C132.47 1087.64 150.81 1090.77 166.94 1106.56 C167.51 1107.12 168.07 1107.67 168.66 1108.24 C171.68 1111.29 173.75 1113.79 175 1118 C175.66 1118 176.32 1118 177 1118 C177.13 1118.74 177.27 1119.48 177.4 1120.25 C177.93 1122.67 178.65 1124.72 179.53 1127.02 C182.13 1135.59 181.46 1144.76 181.48 1153.63 C181.49 1155.63 181.51 1157.63 181.52 1159.63 C181.57 1164.87 181.59 1170.11 181.61 1175.35 C181.65 1183.77 181.71 1192.18 181.77 1200.6 C181.79 1203.54 181.8 1206.48 181.81 1209.42 C181.82 1211.21 181.83 1213 181.84 1214.78 C181.84 1215.61 181.84 1216.43 181.85 1217.28 C181.53 1220.94 181.53 1220.94 183 1224 C185.01 1224.1 187.03 1224.12 189.04 1224.12 C189.68 1224.12 190.32 1224.13 190.98 1224.13 C193.16 1224.13 195.33 1224.12 197.51 1224.12 C199.07 1224.12 200.64 1224.12 202.2 1224.12 C206.52 1224.13 210.84 1224.12 215.16 1224.12 C219.81 1224.11 224.46 1224.11 229.11 1224.11 C237.17 1224.11 245.23 1224.11 253.29 1224.11 C264.95 1224.1 276.61 1224.1 288.27 1224.09 C307.18 1224.09 326.09 1224.08 345 1224.08 C363.38 1224.07 381.75 1224.06 400.13 1224.05 C401.26 1224.05 402.39 1224.05 403.56 1224.05 C409.24 1224.05 414.91 1224.05 420.59 1224.05 C467.73 1224.04 514.86 1224.02 562 1224 C562.05 1187.69 562.08 1151.39 562.1 1115.08 C562.1 1110.79 562.11 1106.5 562.11 1102.2 C562.11 1101.35 562.11 1100.5 562.11 1099.62 C562.12 1085.8 562.14 1071.99 562.15 1058.18 C562.17 1043.99 562.18 1029.81 562.19 1015.62 C562.19 1006.88 562.2 998.13 562.22 989.39 C562.23 983.38 562.23 977.38 562.23 971.37 C562.23 967.91 562.23 964.45 562.24 960.99 C562.85 939.75 562.85 939.75 559 919 C558.56 917.07 558.12 915.13 557.69 913.2 C556.04 905.83 554.17 898.89 551 892 C550.57 891.06 550.15 890.13 549.71 889.16 C548.84 887.27 547.98 885.38 547.11 883.5 C545.87 880.72 544.87 877.91 544 875 C543.34 875 542.68 875 542 875 C541.79 874.22 541.59 873.43 541.38 872.62 C538.18 864.1 538.18 864.1 532 858 C531 856.33 530 854.67 529 853 C528.17 852.01 527.35 851.02 526.5 850 C524 847 524 847 522.69 844.62 C520.05 840.52 516.49 837.38 513 834 C510.16 831.17 507.34 828.33 504.52 825.48 C503.28 824.24 502.05 822.99 500.81 821.75 C500.18 821.11 499.56 820.48 498.91 819.82 C498 818.91 498 818.91 497.08 817.98 C496.27 817.16 496.27 817.16 495.43 816.32 C494.02 814.89 494.02 814.89 492 814 C490.49 812.27 489.06 810.49 487.63 808.69 C485.88 806.88 484.25 806.09 482 805 C481.69 804.36 481.38 803.72 481.06 803.06 C479.64 800.29 477.64 799.56 475 798 C474.67 797.01 474.34 796.02 474 795 C473.01 794.67 472.02 794.34 471 794 C470.01 793.67 469.02 793.34 468 793 C467.67 792.01 467.34 791.02 467 790 C466.34 790 465.68 790 465 790 C465 789.34 465 788.68 465 788 C464.34 788 463.68 788 463 788 C462.67 787.01 462.34 786.02 462 785 C461.34 785 460.68 785 460 785 C460 784.34 460 783.68 460 783 C459.34 783 458.68 783 458 783 C457.67 782.01 457.34 781.02 457 780 C456.34 780 455.68 780 455 780 C455 779.34 455 778.68 455 778 C453.38 776.36 453.38 776.36 451.31 774.69 C442.26 766.98 442.26 766.98 439 762 C439 761.34 439 760.68 439 760 C441.31 759.67 443.62 759.34 446 759 C446 758.34 446 757.68 446 757 C446.92 757.03 446.92 757.03 447.86 757.07 C448.67 757.09 449.48 757.11 450.31 757.12 C451.51 757.16 451.51 757.16 452.74 757.2 C455.28 757.16 455.28 757.16 458 755 C460.67 754.45 463.31 753.98 466 753.56 C471.94 752.59 477.67 751.38 483.46 749.68 C486.15 748.96 488.81 748.5 491.56 748.06 C496.27 747.27 500.28 745.76 504.65 743.88 C506.94 743.02 508.88 742.66 511.31 742.44 C515.11 741.99 516.87 741.08 520 739 C521.88 738.44 521.88 738.44 524 738 C528.54 736.85 532.02 735.43 536 733 C536.99 733 537.98 733 539 733 C543.55 731.91 547.05 730.46 551 728 C553.31 727.31 553.31 727.31 555 727 C555 726.34 555 725.68 555 725 C555.99 725.33 556.98 725.66 558 726 C560.66 725.12 560.66 725.12 563 724 C563 723.34 563 722.68 563 722 C563.89 722.08 564.77 722.16 565.69 722.25 C569.78 721.94 570.89 720.57 574 718 C576.33 717.32 578.66 716.65 581 716 C581.5 715.5 581.99 715.01 582.5 714.5 C584.84 712.16 587.86 711.9 591 711 C592.02 710.02 593.02 709.02 594 708 C595.99 707.3 597.99 706.63 600 706 C600.99 705.34 601.98 704.68 603 704 C603 703.34 603 702.68 603 702 C604.11 701.85 604.11 701.85 605.25 701.69 C608.2 700.95 609.65 699.88 612 698 C612.99 697.67 613.98 697.34 615 697 C615 696.34 615 695.68 615 695 C615.99 695.33 616.98 695.66 618 696 C619.71 694.73 621.38 693.39 623 692 C623.74 691.65 624.49 691.3 625.25 690.94 C627.36 690.07 627.36 690.07 628 687 C628.66 687 629.32 687 630 687 C630 686.34 630 685.68 630 685 C630.99 685.33 631.98 685.66 633 686 C634.89 685.01 634.89 685.01 636.75 683.44 C637.45 682.88 638.16 682.33 638.88 681.75 C641.41 679.66 643.88 677.53 646.35 675.37 C648.76 673.37 651.39 671.72 654 670 C655.01 669.15 656.02 668.31 657.06 667.44 C660 665 660 665 662.29 663.73 C665.75 661.52 668.44 658.85 671.31 655.94 C671.86 655.4 672.41 654.85 672.98 654.29 C676.01 651.65 676.01 651.65 677 648 C677.81 647.84 678.62 647.69 679.45 647.52 C684.62 645.3 687.88 641.63 691.75 637.62 C692.9 636.47 692.9 636.47 694.07 635.3 C697.35 631.97 699.94 629.19 702 625 C703.39 623.43 703.39 623.43 704.97 621.94 C705.54 621.39 706.11 620.84 706.7 620.27 C707.9 619.13 709.1 618 710.3 616.87 C713.58 613.69 715.43 611.34 717 607 C718.97 604.88 721.07 603 723.22 601.06 C725.26 598.69 725.65 597.07 726 594 C726.66 594 727.32 594 728 594 C728 592.68 728 591.36 728 590 C728.66 590 729.32 590 730 590 C734.29 585.78 734.29 585.78 735 580 C735.99 579.67 736.98 579.34 738 579 C740.6 575.02 742.42 571.78 743 567 C743.66 567 744.32 567 745 567 C745.15 566.1 745.15 566.1 745.31 565.19 C746.09 562.72 747.07 561.68 749 560 C748.67 559.01 748.34 558.02 748 557 C748.66 557 749.32 557 750 557 C751.78 554.36 752.99 552.03 754 549 C753.67 548.34 753.34 547.68 753 547 C753.66 547 754.32 547 755 547 C756.42 543.68 757.39 540.56 758 537 C758.66 537 759.32 537 760 537 C760.27 535.95 760.54 534.9 760.81 533.81 C762 530 762 530 763.56 527.44 C765.24 524.59 765.58 522.26 766 519 C766.47 516.4 766.99 515.02 768.5 512.81 C769.96 510.08 770.22 508.86 770.44 505.88 C770.73 502.1 771.63 499.13 773.06 495.62 C775.27 489.99 775.42 484.99 775 479 C775.66 479 776.32 479 777 479 C777.13 477.81 777.27 476.61 777.4 475.38 C777.76 472.19 778.11 469 778.46 465.82 C778.55 465.01 778.64 464.2 778.73 463.36 C778.9 461.91 779.08 460.45 779.28 459 C780.35 451 780.24 442.93 780.25 434.88 C780.25 434.08 780.25 433.28 780.26 432.46 C780.26 419.86 779.5 407.62 777.37 395.18 C777.05 393.28 776.77 391.38 776.5 389.47 C775.33 381.48 773.21 373.76 771 366 C770.7 364.94 770.7 364.94 770.39 363.85 C767.21 352.64 763.7 341.68 759 331 C758.71 330.26 758.42 329.52 758.12 328.76 C754.7 320.35 750.77 312.04 746.24 304.17 C744.8 301.64 743.43 299.07 742.06 296.5 C739.32 291.46 736.26 286.72 733 282 C732.28 280.91 731.56 279.81 730.81 278.69 C729.14 276.07 729.14 276.07 727.41 274.23 C725.53 271.26 725.62 269.2 725.61 265.7 C725.6 264.4 725.59 263.11 725.57 261.77 C725.58 260.34 725.58 258.91 725.58 257.47 C725.58 255.96 725.57 254.45 725.56 252.94 C725.53 248.84 725.53 244.73 725.53 240.63 C725.52 236.34 725.5 232.04 725.48 227.75 C725.44 219.62 725.41 211.48 725.4 203.35 C725.36 188.78 725.3 174.21 725.24 159.64 C725.22 154.53 725.2 149.42 725.19 144.3 C725.19 141.12 725.18 137.94 725.16 134.77 C725.16 133.29 725.16 131.81 725.16 130.34 C725.15 128.33 725.15 126.31 725.14 124.3 C725.13 122.61 725.13 122.61 725.13 120.89 C725.02 118.38 724.68 116.39 724 114 C723.68 111.92 723.36 109.84 723.05 107.75 C720.92 93.39 718.04 79.03 713 65.38 C712.67 64.48 712.34 63.58 712 62.65 C711.67 61.77 711.34 60.9 711 60 C710.67 59.08 710.34 58.17 710 57.23 C709.21 54.84 709.21 54.84 707 54 C703.26 53.76 699.5 53.81 695.75 53.81 C694.71 53.8 693.67 53.79 692.61 53.78 C687.25 53.77 683.05 54.08 678 56 C675.74 56.25 673.46 56.44 671.19 56.56 C667.28 56.44 667.28 56.44 664 58 C661.96 58.45 659.93 58.9 657.89 59.33 C647.47 61.52 647.47 61.52 638 66 C636.34 66.38 634.68 66.73 633 67 C633 67.66 633 68.32 633 69 C631.35 69 629.7 69 628 69 C628 69.66 628 70.32 628 71 C627.11 71.27 626.23 71.54 625.31 71.81 C622.21 72.92 619.79 74.28 617 76 C616.13 76.33 615.27 76.66 614.38 77 C611.96 77.84 611.96 77.84 610.44 79.56 C609 81 609 81 607.12 81.38 C603.91 82.32 602.33 84.62 600 87 C598.76 87.94 597.51 88.85 596.25 89.75 C592.15 92.75 588.7 96.2 585.16 99.84 C583.3 101.7 581.41 103.39 579.38 105.06 C576.1 107.8 573.39 110.87 570.62 114.12 C568.54 116.54 566.29 118.77 564 121 C563.2 121.83 562.39 122.65 561.56 123.5 C559.65 125.37 557.77 127.02 555.69 128.69 C554.8 129.45 553.91 130.21 553 131 C553 131.66 553 132.32 553 133 C552.34 133 551.68 133 551 133 C550.67 133.33 550.34 133.66 550 134 C549.34 133.34 548.68 132.68 548 132 C546.46 133.37 546.46 133.37 545 135 C545 135.66 545 136.32 545 137 C545.33 137.33 545.66 137.66 546 138 C544.35 138.33 542.7 138.66 541 139 C541 138.34 541 137.68 541 137 C537.04 136.5 537.04 136.5 533 136 C533 135.34 533 134.68 533 134 C530.69 134 528.38 134 526 134 C526 133.34 526 132.68 526 132 C525.37 131.89 524.74 131.78 524.09 131.67 C519.18 130.76 514.71 129.6 510.09 127.73 C506.8 126.58 503.43 126.03 500 125.43 C498 125 498 125 497 124 C493.67 123.34 490.34 122.76 486.99 122.19 C483.31 121.54 480.3 120.71 477 119 C474.45 118.59 474.45 118.59 471.81 118.44 C467.1 118.1 467.1 118.1 466 117 C463.52 116.63 461.05 116.29 458.56 116 C451.27 115.13 451.27 115.13 449 114 C446.86 113.79 444.71 113.63 442.56 113.5 C439.11 113.28 436.29 113.1 433 112 C431.64 111.88 430.27 111.8 428.9 111.75 C428.1 111.72 427.3 111.69 426.47 111.65 C424.81 111.59 423.15 111.54 421.49 111.48 C417.39 111.31 413.56 110.96 409.57 109.99 C403 108.64 396.5 108.71 389.81 108.73 C388.46 108.73 387.11 108.73 385.76 108.73 C382.94 108.73 380.12 108.73 377.31 108.74 C373.72 108.75 370.14 108.74 366.55 108.73 C363.77 108.72 360.98 108.73 358.19 108.73 C356.24 108.73 354.28 108.73 352.33 108.72 C346.08 108.75 340.27 109.07 334.18 110.53 C330.17 111.39 326.09 111.43 322 111.56 C320.33 111.62 318.67 111.69 317 111.75 C316.28 111.78 315.56 111.8 314.81 111.83 C312.9 111.9 312.9 111.9 311 113 C307.53 113.28 304.06 113.45 300.58 113.62 C297.09 113.99 294.3 114.86 291 116 C289.09 116.25 287.17 116.44 285.25 116.56 C281.48 116.75 281.48 116.75 278 118 C275.77 118.27 273.53 118.44 271.29 118.62 C268.98 118.88 268.98 118.88 267.04 120 C264.56 121.22 262.49 121.41 259.75 121.62 C258.41 121.74 258.41 121.74 257.05 121.85 C256.37 121.9 255.7 121.95 255 122 C255 122.66 255 123.32 255 124 C254.11 123.96 253.23 123.92 252.31 123.88 C248.9 124 247.13 124.74 244 126 C241.52 126.66 239.05 127.28 236.56 127.88 C231.08 129.22 225.62 130.61 220.19 132.12 C219.07 132.44 217.95 132.75 216.79 133.07 C213.84 133.92 213.84 133.92 211 136 C206.07 137.64 201.85 138.98 196.81 137.25 C195 136 195 136 194.12 134.17 C192.83 131.66 191.31 130.05 189.32 128.06 C188.56 127.3 187.81 126.54 187.03 125.75 C186.22 124.94 185.4 124.13 184.56 123.3 C183.73 122.46 182.89 121.62 182.03 120.76 C180.26 118.99 178.49 117.23 176.72 115.46 C174 112.75 171.29 110.03 168.59 107.31 C166.87 105.6 165.15 103.88 163.44 102.17 C162.62 101.35 161.81 100.53 160.97 99.69 C160.21 98.94 159.46 98.2 158.68 97.42 C158.02 96.76 157.35 96.1 156.67 95.42 C155.11 93.78 155.11 93.78 153 94 C153 93.34 153 92.68 153 92 C152.03 91.73 151.06 91.46 150.06 91.19 C149.05 90.8 148.04 90.4 147 90 C146.67 89.01 146.34 88.02 146 87 C143.82 85.17 143.82 85.17 141.19 83.44 C140.31 82.84 139.44 82.24 138.54 81.62 C136.4 80.25 134.28 79.12 132 78 C130.68 77.18 129.37 76.35 128.06 75.5 C125.12 73.63 122.25 72.28 119 71 C118.67 70.34 118.34 69.68 118 69 C115.49 68.16 115.49 68.16 112.56 67.5 C107.22 66.22 107.22 66.22 105 64 C100.41 62.42 95.7 61.24 91 60 C89.41 59.58 89.41 59.58 87.78 59.14 C80.75 57.4 73.76 56.38 66.56 55.65 C61.19 55.09 61.19 55.09 59 54 C55.71 53.74 52.42 53.77 49.12 53.75 C48.21 53.73 47.3 53.71 46.36 53.69 C45.48 53.68 44.6 53.68 43.7 53.67 C42.89 53.66 42.09 53.65 41.26 53.64 C38.43 54.09 37.09 55.07 35 57 Z M32 59 C33 61 33 61 33 61 Z M638 62 C637.67 62.99 637.34 63.98 637 65 C637.99 64.67 638.98 64.34 640 64 C639.34 63.34 638.68 62.68 638 62 Z M26 74 C26.66 74.66 27.32 75.32 28 76 C28 75.34 28 74.68 28 74 C27.34 74 26.68 74 26 74 Z M608 77 C607.67 77.99 607.34 78.98 607 80 C607.99 79.67 608.98 79.34 610 79 C610 78.34 610 77.68 610 77 C609.34 77 608.68 77 608 77 Z M600 82 C600.33 82.99 600.66 83.98 601 85 C601.66 84.67 602.32 84.34 603 84 C603 83.34 603 82.68 603 82 C602.01 82 601.02 82 600 82 Z M598 84 C597.67 84.99 597.34 85.98 597 87 C597.99 86.67 598.98 86.34 600 86 C599.34 85.34 598.68 84.68 598 84 Z M591 89 C591 89.99 591 90.98 591 92 C591.66 91.67 592.32 91.34 593 91 C593 90.34 593 89.68 593 89 C592.34 89 591.68 89 591 89 Z M588 92 C586.51 93.98 586.51 93.98 585 96 C585.99 96 586.98 96 588 96 C588.66 95.01 589.32 94.02 590 93 C589.34 92.67 588.68 92.34 588 92 Z M581 99 C582 101 582 101 582 101 Z M551 129 C551 129.99 551 130.98 551 132 C551.66 131.34 552.32 130.68 553 130 C552.34 129.67 551.68 129.34 551 129 Z M787 266 C788 268 788 268 788 268 Z M15 272 C16 274 16 274 16 274 Z M17 272 C18 274 18 274 18 274 Z M11 279 C10.67 279.99 10.34 280.98 10 282 C10.99 281.67 11.98 281.34 13 281 C13 280.34 13 279.68 13 279 C12.34 279 11.68 279 11 279 Z M797 284 C798 286 798 286 798 286 Z M5 287 C6 289 6 289 6 289 Z M7 287 C8 289 8 289 8 289 Z M-18 334 C-17 336 -17 336 -17 336 Z M-24 349 C-23.34 349.66 -22.68 350.32 -22 351 C-22 350.34 -22 349.68 -22 349 C-22.66 349 -23.32 349 -24 349 Z M816 537 C815.67 537.99 815.34 538.98 815 540 C815.99 539.67 816.98 539.34 818 539 C818 538.34 818 537.68 818 537 C817.34 537 816.68 537 816 537 Z M793 589 C793.66 589.66 794.32 590.32 795 591 C795 590.34 795 589.68 795 589 C794.34 589 793.68 589 793 589 Z M17 596 C18 598 18 598 18 598 Z M787 602 C788 604 788 604 788 604 Z M778 614 C777.67 614.99 777.34 615.98 777 617 C777.99 616.67 778.98 616.34 780 616 C780 615.34 780 614.68 780 614 C779.34 614 778.68 614 778 614 Z M771 624 C771.66 624.66 772.32 625.32 773 626 C773 625.34 773 624.68 773 624 C772.34 624 771.68 624 771 624 Z M765 632 C766 634 766 634 766 634 Z M767 632 C768 634 768 634 768 634 Z M698 702 C696.36 703.96 696.36 703.96 695 706 C695.99 706 696.98 706 698 706 C698.66 704.68 699.32 703.36 700 702 C699.34 702 698.68 702 698 702 Z M693 707 C692.67 707.99 692.34 708.98 692 710 C692.99 709.67 693.98 709.34 695 709 C694.34 708.34 693.68 707.68 693 707 Z M685 712 C685.33 712.99 685.66 713.98 686 715 C686.66 714.67 687.32 714.34 688 714 C688 713.34 688 712.68 688 712 C687.01 712 686.02 712 685 712 Z M673 722 C672.67 722.99 672.34 723.98 672 725 C672.99 724.67 673.98 724.34 675 724 C675 723.34 675 722.68 675 722 C674.34 722 673.68 722 673 722 Z M657 733 C657 733.66 657 734.32 657 735 C657.66 734.67 658.32 734.34 659 734 C658.34 733.67 657.68 733.34 657 733 Z M638 744 C638 744.99 638 745.98 638 747 C638.66 746.67 639.32 746.34 640 746 C640 745.34 640 744.68 640 744 C639.34 744 638.68 744 638 744 Z M621 754 C620.67 754.99 620.34 755.98 620 757 C620.99 756.67 621.98 756.34 623 756 C622.34 755.34 621.68 754.68 621 754 Z M-214 819 C-214.33 819.99 -214.66 820.98 -215 822 C-214.01 821.67 -213.02 821.34 -212 821 C-212 820.34 -212 819.68 -212 819 C-212.66 819 -213.32 819 -214 819 Z M577 826 C578 828 578 828 578 828 Z M-227 832 C-227 832.66 -227 833.32 -227 834 C-226.34 833.67 -225.68 833.34 -225 833 C-225.66 832.67 -226.32 832.34 -227 832 Z M213 852 C212.67 852.99 212.34 853.98 212 855 C212.99 854.67 213.98 854.34 215 854 C215 853.34 215 852.68 215 852 C214.34 852 213.68 852 213 852 Z M191 897 C191 897.99 191 898.98 191 900 C191.66 899.67 192.32 899.34 193 899 C193 898.34 193 897.68 193 897 C192.34 897 191.68 897 191 897 Z M-118 904 C-117 906 -117 906 -117 906 Z M-113 911 C-112 913 -112 913 -112 913 Z M170 982 C171 984 171 984 171 984 Z M172 982 C173 984 173 984 173 984 Z M169 984 C170 986 170 986 170 986 Z M172 1114 C173 1116 173 1116 173 1116 Z " fill="#FAFCFC" transform="translate(282,0)"/>
<path d="M0 0 C0.33 0 0.66 0 1 0 C1 113.19 1 226.38 1 343 C0.67 343 0.34 343 0 343 C0 229.81 0 116.62 0 0 Z " fill="#000100" transform="translate(900,937)"/>
<path d="M0 0 C6.78 5.55 12.86 11.76 19 18 C18.67 18.66 18.34 19.32 18 20 C15 19 13.97 18.35 12 16 C12 15.34 12 14.68 12 14 C11.36 13.73 10.72 13.46 10.06 13.19 C8 12 8 12 7 9 C6.34 8.67 5.68 8.34 5 8 C3 7 3 7 2 4 C1.34 4 0.68 4 0 4 C0 2.68 0 1.36 0 0 Z " fill="#B1B1B0" transform="translate(725,764)"/>
<path d="M0 0 C0.66 0.99 1.32 1.98 2 3 C-0.97 5.97 -3.94 8.94 -7 12 C-7.66 11.34 -8.32 10.68 -9 10 C-8.01 9.34 -7.02 8.68 -6 8 C-4.81 5.95 -4.81 5.95 -4 4 C-3.01 4 -2.02 4 -1 4 C-0.67 2.68 -0.34 1.36 0 0 Z " fill="#E4E6E5" transform="translate(453,982)"/>
<path d="M0 0 C1.32 0.66 2.64 1.32 4 2 C1.15 4.93 -1.65 7.64 -5 10 C-5.33 9.34 -5.66 8.68 -6 8 C-5.34 8 -4.68 8 -4 8 C-3.71 7.03 -3.42 6.06 -3.12 5.06 C-2 2 -2 2 0 1 C0 0.67 0 0.34 0 0 Z " fill="#DBDDDC" transform="translate(585,759)"/>
<path d="M0 0 C7.59 0 15.18 0 23 0 C23 0.33 23 0.66 23 1 C15.41 1 7.82 1 0 1 C0 0.67 0 0.34 0 0 Z " fill="#000100" transform="translate(966,55)"/>
<path d="M0 0 C6.6 0 13.2 0 20 0 C20 0.33 20 0.66 20 1 C13.4 1 6.8 1 0 1 C0 0.67 0 0.34 0 0 Z " fill="#000100" transform="translate(321,55)"/>
<path d="M0 0 C6.27 0 12.54 0 19 0 C19 0.33 19 0.66 19 1 C12.73 1 6.46 1 0 1 C0 0.67 0 0.34 0 0 Z " fill="#000100" transform="translate(667,110)"/>
<path d="M0 0 C5.94 0 11.88 0 18 0 C18 0.33 18 0.66 18 1 C12.06 1 6.12 1 0 1 C0 0.67 0 0.34 0 0 Z " fill="#000100" transform="translate(624,110)"/>
<path d="M0 0 C2.97 0 5.94 0 9 0 C9 0.33 9 0.66 9 1 C6.03 1 3.06 1 0 1 C0 0.67 0 0.34 0 0 Z " fill="#FBFDFD" transform="translate(633,52)"/>
<path d="M0 0 C0.33 0 0.66 0 1 0 C1 2.31 1 4.62 1 7 C0.67 7 0.34 7 0 7 C0 4.69 0 2.38 0 0 Z " fill="#000100" transform="translate(465,946)"/>
<path d="M0 0 C0.66 0.66 1.32 1.32 2 2 C1.01 2.5 1.01 2.5 0 3 C-0.66 2.34 -1.32 1.68 -2 1 C-1.34 0.67 -0.68 0.34 0 0 Z " fill="#D1D2D2" transform="translate(442,994)"/>
<path d="M0 0 C0.33 0 0.66 0 1 0 C1 1.98 1 3.96 1 6 C0.67 6 0.34 6 0 6 C0 4.02 0 2.04 0 0 Z " fill="#000100" transform="translate(1115,476)"/>
<path d="M0 0 C1 4 1 4 1 4 Z " fill="#000100" transform="translate(250,475)"/>
<path d="M0 0 C1 4 1 4 1 4 Z " fill="#000100" transform="translate(1115,390)"/>
<path d="M0 0 C4 1 4 1 4 1 Z " fill="#000100" transform="translate(727,115)"/>
<path d="M0 0 C4 1 4 1 4 1 Z " fill="#000100" transform="translate(579,115)"/>
<path d="M0 0 C1 4 1 4 1 4 Z " fill="#000100" transform="translate(1060,95)"/>
<path d="" fill="#FBFDFD" transform="translate(0,0)"/>
<path d="M0 0 C3 1 3 1 3 1 Z " fill="#000100" transform="translate(291,1140)"/>
<path d="M0 0 C3 1 3 1 3 1 Z " fill="#000100" transform="translate(66,925)"/>
<path d="" fill="#000100" transform="translate(0,0)"/>
<path d="M0 0 C3 1 3 1 3 1 Z " fill="#000100" transform="translate(756,120)"/>
<path d="" fill="#000100" transform="translate(0,0)"/>
<path d="M0 0 C2 1 2 1 2 1 Z " fill="#000100" transform="translate(327,1005)"/>
<path d="" fill="#000100" transform="translate(0,0)"/>
<path d="" fill="#FBFDFD" transform="translate(0,0)"/>
<path d="" fill="#000100" transform="translate(0,0)"/>
<path d="" fill="#000100" transform="translate(0,0)"/>
<path d="" fill="#FBFDFD" transform="translate(0,0)"/>
<path d="M0 0 C2 1 2 1 2 1 Z " fill="#000100" transform="translate(812,135)"/>
<path d="M0 0 C2 1 2 1 2 1 Z " fill="#000100" transform="translate(551,120)"/>
<path d="" fill="#000100" transform="translate(0,0)"/>
<path d="M0 0 C2 1 2 1 2 1 Z " fill="#000100" transform="translate(369,60)"/>
<path d="" fill="#000100" transform="translate(0,0)"/>
<path d="" fill="#000100" transform="translate(0,0)"/>
<path d="" fill="#7E7D7C" transform="translate(0,0)"/>
<path d="" fill="#FBFDFD" transform="translate(0,0)"/>
<path d="" fill="#000100" transform="translate(0,0)"/>
<path d="" fill="#000100" transform="translate(0,0)"/>
<path d="" fill="#FBFDFD" transform="translate(0,0)"/>
<path d="" fill="#7E7D7C" transform="translate(0,0)"/>
<path d="" fill="#000100" transform="translate(0,0)"/>
<path d="" fill="#000100" transform="translate(0,0)"/>
<path d="" fill="#000100" transform="translate(0,0)"/>
<path d="" fill="#000100" transform="translate(0,0)"/>
<path d="" fill="#000100" transform="translate(0,0)"/>
<path d="" fill="#000100" transform="translate(0,0)"/>
<path d="" fill="#7E7D7C" transform="translate(0,0)"/>
<path d="" fill="#000100" transform="translate(0,0)"/>
<path d="" fill="#000100" transform="translate(0,0)"/>
<path d="" fill="#000100" transform="translate(0,0)"/>
<path d="" fill="#000100" transform="translate(0,0)"/>
<path d="" fill="#7E7D7C" transform="translate(0,0)"/>
<path d="" fill="#FBFDFD" transform="translate(0,0)"/>
<path d="" fill="#FBFDFD" transform="translate(0,0)"/>
<path d="" fill="#7E7D7C" transform="translate(0,0)"/>
<path d="" fill="#FBFDFD" transform="translate(0,0)"/>
<path d="" fill="#FBFDFD" transform="translate(0,0)"/>
<path d="" fill="#7E7D7C" transform="translate(0,0)"/>
<path d="" fill="#000100" transform="translate(0,0)"/>
<path d="" fill="#FBFDFD" transform="translate(0,0)"/>
<path d="" fill="#000100" transform="translate(0,0)"/>
<path d="" fill="#FBFDFD" transform="translate(0,0)"/>
<path d="" fill="#000100" transform="translate(0,0)"/>
<path d="" fill="#000100" transform="translate(0,0)"/>
<path d="" fill="#7E7D7C" transform="translate(0,0)"/>
<path d="" fill="#7E7D7C" transform="translate(0,0)"/>
<path d="" fill="#FBFDFD" transform="translate(0,0)"/>
<path d="" fill="#000100" transform="translate(0,0)"/>
<path d="" fill="#000100" transform="translate(0,0)"/>
<path d="" fill="#000100" transform="translate(0,0)"/>
<path d="" fill="#FBFDFD" transform="translate(0,0)"/>
<path d="" fill="#000100" transform="translate(0,0)"/>
<path d="" fill="#000100" transform="translate(0,0)"/>
<path d="" fill="#FBFDFD" transform="translate(0,0)"/>
<path d="" fill="#7E7D7C" transform="translate(0,0)"/>
<path d="" fill="#7E7D7C" transform="translate(0,0)"/>
<path d="" fill="#000100" transform="translate(0,0)"/>
<path d="" fill="#7E7D7C" transform="translate(0,0)"/>
<path d="" fill="#FBFDFD" transform="translate(0,0)"/>
<path d="" fill="#7E7D7C" transform="translate(0,0)"/>
<path d="" fill="#FBFDFD" transform="translate(0,0)"/>
<path d="" fill="#7E7D7C" transform="translate(0,0)"/>
<path d="" fill="#7E7D7C" transform="translate(0,0)"/>
<path d="" fill="#7E7D7C" transform="translate(0,0)"/>
<path d="" fill="#FBFDFD" transform="translate(0,0)"/>
<path d="" fill="#FBFDFD" transform="translate(0,0)"/>
<path d="" fill="#7E7D7C" transform="translate(0,0)"/>
<path d="" fill="#FBFDFD" transform="translate(0,0)"/>
<path d="" fill="#FBFDFD" transform="translate(0,0)"/>
<path d="" fill="#000100" transform="translate(0,0)"/>
<path d="" fill="#000100" transform="translate(0,0)"/>
<path d="" fill="#FBFDFD" transform="translate(0,0)"/>
<path d="" fill="#FBFDFD" transform="translate(0,0)"/>
<path d="" fill="#7E7D7C" transform="translate(0,0)"/>
<path d="" fill="#7E7D7C" transform="translate(0,0)"/>
<path d="" fill="#7E7D7C" transform="translate(0,0)"/>
<path d="" fill="#FBFDFD" transform="translate(0,0)"/>
<path d="" fill="#FBFDFD" transform="translate(0,0)"/>
<path d="" fill="#000100" transform="translate(0,0)"/>
<path d="" fill="#000100" transform="translate(0,0)"/>
<path d="" fill="#7E7D7C" transform="translate(0,0)"/>
<path d="" fill="#000100" transform="translate(0,0)"/>
<path d="" fill="#FBFDFD" transform="translate(0,0)"/>
<path d="" fill="#000100" transform="translate(0,0)"/>
<path d="" fill="#000100" transform="translate(0,0)"/>
<path d="" fill="#000100" transform="translate(0,0)"/>
<path d="" fill="#FBFDFD" transform="translate(0,0)"/>
<path d="" fill="#7E7D7C" transform="translate(0,0)"/>
<path d="" fill="#000100" transform="translate(0,0)"/>
<path d="" fill="#FBFDFD" transform="translate(0,0)"/>
<path d="" fill="#FBFDFD" transform="translate(0,0)"/>
<path d="" fill="#7E7D7C" transform="translate(0,0)"/>
<path d="" fill="#FBFDFD" transform="translate(0,0)"/>
<path d="" fill="#7E7D7C" transform="translate(0,0)"/>
<path d="" fill="#7E7D7C" transform="translate(0,0)"/>
<path d="" fill="#000100" transform="translate(0,0)"/>
<path d="" fill="#000100" transform="translate(0,0)"/>
<path d="" fill="#FBFDFD" transform="translate(0,0)"/>
<path d="" fill="#7E7D7C" transform="translate(0,0)"/>
<path d="" fill="#FBFDFD" transform="translate(0,0)"/>
<path d="" fill="#7E7D7C" transform="translate(0,0)"/>
<path d="" fill="#7E7D7C" transform="translate(0,0)"/>
<path d="" fill="#7E7D7C" transform="translate(0,0)"/>
<path d="" fill="#7E7D7C" transform="translate(0,0)"/>
<path d="" fill="#000100" transform="translate(0,0)"/>
<path d="" fill="#7E7D7C" transform="translate(0,0)"/>
<path d="" fill="#000100" transform="translate(0,0)"/>
<path d="" fill="#7E7D7C" transform="translate(0,0)"/>
<path d="" fill="#000100" transform="translate(0,0)"/>
<path d="" fill="#000100" transform="translate(0,0)"/>
<path d="" fill="#FBFDFD" transform="translate(0,0)"/>
<path d="" fill="#FBFDFD" transform="translate(0,0)"/>
<path d="" fill="#000100" transform="translate(0,0)"/>
<path d="" fill="#FBFDFD" transform="translate(0,0)"/>
<path d="" fill="#FBFDFD" transform="translate(0,0)"/>
<path d="" fill="#FBFDFD" transform="translate(0,0)"/>
<path d="" fill="#FBFDFD" transform="translate(0,0)"/>
<path d="" fill="#FBFDFD" transform="translate(0,0)"/>
<path d="" fill="#000100" transform="translate(0,0)"/>
<path d="" fill="#FBFDFD" transform="translate(0,0)"/>
<path d="" fill="#FBFDFD" transform="translate(0,0)"/>
</svg>
