<?xml version="1.0" encoding="UTF-8"?>
<!-- Generator: visioncortex VTracer 0.6.3 -->
<svg version="1.1" xmlns="http://www.w3.org/2000/svg" width="1280" height="1280">
<path d="M0 0 C0.88 -0 1.77 -0 2.68 -0.01 C5.65 -0.01 8.63 -0.01 11.6 -0.01 C13.73 -0.01 15.86 -0.02 17.98 -0.02 C23.78 -0.03 29.57 -0.03 35.36 -0.03 C40.19 -0.03 45.02 -0.04 49.85 -0.04 C61.25 -0.05 72.65 -0.05 84.05 -0.05 C95.81 -0.05 107.57 -0.06 119.34 -0.08 C129.43 -0.09 139.52 -0.1 149.61 -0.1 C155.64 -0.09 161.67 -0.1 167.7 -0.11 C173.38 -0.12 179.05 -0.12 184.72 -0.11 C186.81 -0.11 188.89 -0.11 190.97 -0.12 C193.81 -0.13 196.66 -0.12 199.5 -0.11 C200.32 -0.12 201.15 -0.12 201.99 -0.13 C209.23 -0.09 215.2 1.63 221.57 5.13 C222.2 5.45 222.83 5.76 223.47 6.09 C230.52 9.94 234.69 15.95 237.94 23.2 C238.65 26.52 238.99 29.79 239.22 33.18 C239.42 35.36 239.42 35.36 241.57 37.13 C241.9 36.47 242.23 35.81 242.57 35.13 C244.89 34.73 247.23 34.39 249.57 34.13 C249.57 33.8 249.57 33.47 249.57 33.13 C251.05 32.98 251.05 32.98 252.57 32.82 C256.03 32.34 259 31.2 262.25 29.89 C266.05 28.65 269.97 28.19 273.93 27.66 C276.78 27.26 276.78 27.26 279.57 25.13 C285.09 23.89 285.09 23.89 287.57 25.13 C287.57 24.47 287.57 23.81 287.57 23.13 C288.26 23.08 288.94 23.04 289.65 22.99 C290.55 22.91 291.45 22.84 292.38 22.76 C293.27 22.69 294.17 22.62 295.09 22.55 C297.81 22.27 297.81 22.27 300.57 20.13 C307.44 18.57 307.44 18.57 310.57 20.13 C310.57 19.47 310.57 18.81 310.57 18.13 C311.3 18.1 312.02 18.06 312.77 18.02 C318.08 17.67 323.06 17.12 328.19 15.7 C333.92 14.16 339.54 13.49 345.42 12.91 C352.03 12.24 358.56 11.24 365.11 10.1 C369.66 9.33 373.94 9.1 378.57 9.13 C379.23 8.8 379.89 8.47 380.57 8.13 C381.91 7.98 383.25 7.89 384.6 7.82 C385.78 7.75 385.78 7.75 387 7.69 C387.82 7.65 388.65 7.61 389.51 7.57 C390.33 7.53 391.15 7.48 392 7.44 C395.2 7.28 398.37 7.13 401.57 7.13 C403.03 7 404.5 6.86 405.96 6.7 C419.92 5.3 433.73 4.85 447.75 4.93 C451.16 4.95 454.57 4.95 457.98 4.95 C486.48 4.99 486.48 4.99 494.57 7.13 C496.44 7.29 498.32 7.41 500.19 7.51 C513.47 8.48 526.45 11.07 539.29 14.52 C541.88 15.22 544.48 15.9 547.07 16.58 C564.57 21.23 564.57 21.23 572.54 24.37 C574.54 25.17 574.54 25.17 576.57 25.62 C579.58 26.39 582.26 27.78 585.06 29.1 C587.67 30.24 587.67 30.24 590.92 31.03 C594.79 32.2 598.13 33.86 601.63 35.82 C602.95 36.54 604.27 37.27 605.59 37.99 C606.25 38.35 606.92 38.71 607.6 39.08 C610.62 40.69 613.68 42.19 616.76 43.7 C625.69 48.13 634.17 53.11 642.41 58.73 C645.37 60.65 648.46 62.3 651.57 63.97 C654.11 65.45 656.28 67.29 658.57 69.13 C659.37 69.4 660.18 69.67 661.01 69.95 C663.74 71.21 664.6 72.2 666.44 74.51 C669.41 78.2 672.35 80.03 676.57 82.13 C676.57 82.79 676.57 83.45 676.57 84.13 C677.23 84.13 677.89 84.13 678.57 84.13 C678.98 84.73 679.39 85.33 679.82 85.95 C682.02 88.7 684.37 89.71 687.57 91.13 C687.57 91.79 687.57 92.45 687.57 93.13 C688.37 93.45 688.37 93.45 689.19 93.77 C692.49 95.66 694.98 98.26 697.65 100.95 C698.22 101.52 698.79 102.09 699.38 102.67 C700.58 103.87 701.78 105.08 702.98 106.28 C704.82 108.13 706.67 109.97 708.52 111.81 C709.69 112.98 710.86 114.15 712.02 115.32 C712.58 115.87 713.13 116.43 713.71 116.99 C717.57 120.9 717.57 120.9 717.57 123.13 C718.23 123.13 718.89 123.13 719.57 123.13 C721.57 126.13 721.57 126.13 721.57 129.13 C722.56 129.46 723.55 129.79 724.57 130.13 C728.56 134.01 731.83 138.3 734.57 143.13 C735.18 143.9 735.79 144.66 736.42 145.44 C739.28 149.03 741.75 152.83 744.26 156.66 C745.91 159.16 747.6 161.64 749.31 164.11 C750 165.11 750 165.11 750.7 166.14 C751.6 167.45 752.5 168.76 753.42 170.06 C755.73 173.46 756.57 174.9 756.57 179.13 C757.56 179.46 758.55 179.79 759.57 180.13 C759.24 181.45 758.91 182.77 758.57 184.13 C759.14 184.32 759.72 184.5 760.31 184.69 C763.62 186.8 765 189.87 766.76 193.26 C767.11 193.9 767.47 194.54 767.83 195.2 C770.31 199.88 771.17 203.85 771.57 209.13 C772.56 209.46 773.55 209.79 774.57 210.13 C775.41 211.95 775.41 211.95 776.07 214.26 C776.95 217.16 777.87 219.83 779.07 222.63 C780.52 226.02 781.69 229.4 782.82 232.91 C783.48 234.86 784.23 236.78 785.01 238.7 C787.28 244.67 788.59 250.96 790.09 257.16 C790.77 259.98 791.52 262.77 792.26 265.57 C793.31 269.75 793.99 273.79 794.26 278.1 C794.5 280.23 794.5 280.23 795.56 282.45 C797.19 286.8 797.03 291.25 797.22 295.86 C797.32 298.99 797.32 298.99 798.57 300.8 C800.1 304.37 799.84 307.99 799.82 311.82 C799.83 313.15 799.83 313.15 799.83 314.51 C799.84 317.52 799.83 320.52 799.83 323.52 C799.83 325.69 799.84 327.86 799.84 330.02 C799.85 335.99 799.85 341.96 799.84 347.94 C799.84 354.37 799.85 360.8 799.86 367.23 C799.87 379.85 799.87 392.46 799.87 405.07 C799.87 415.31 799.87 425.56 799.88 435.81 C799.88 437.28 799.88 438.75 799.88 440.22 C799.88 442.44 799.88 444.66 799.88 446.88 C799.89 467.5 799.89 488.12 799.89 508.74 C799.89 509.52 799.89 510.3 799.89 511.1 C799.89 515.04 799.89 518.98 799.89 522.93 C799.88 523.71 799.88 524.49 799.88 525.3 C799.88 526.88 799.88 528.46 799.88 530.05 C799.88 554.68 799.89 579.31 799.9 603.94 C799.93 631.61 799.94 659.27 799.93 686.94 C799.93 689.89 799.93 692.84 799.93 695.79 C799.93 696.51 799.93 697.24 799.93 697.99 C799.93 708.96 799.94 719.92 799.95 730.89 C799.96 743.37 799.96 755.84 799.95 768.32 C799.94 774.68 799.94 781.05 799.95 787.42 C799.96 793.24 799.96 799.07 799.95 804.9 C799.94 807.01 799.95 809.12 799.95 811.22 C799.96 814.09 799.96 816.96 799.94 819.82 C799.95 820.64 799.96 821.46 799.97 822.3 C799.91 828.06 798.62 832.78 796.57 838.13 C796.24 839.12 795.91 840.11 795.57 841.13 C793.9 842.78 793.9 842.78 791.82 844.51 C789.33 846.6 786.97 848.69 784.76 851.07 C782.57 853.13 782.57 853.13 779.57 853.13 C779.57 853.79 779.57 854.45 779.57 855.13 C777.92 855.13 776.27 855.13 774.57 855.13 C774.57 855.79 774.57 856.45 774.57 857.13 C770.81 859.01 766.26 858.32 762.13 858.32 C761.16 858.33 760.2 858.35 759.2 858.36 C757.81 858.36 757.81 858.36 756.38 858.36 C755.53 858.37 754.68 858.37 753.81 858.38 C751.57 858.13 751.57 858.13 748.57 856.13 C746.48 855.83 746.48 855.83 744.15 855.88 C743.24 855.88 742.34 855.87 741.4 855.87 C740.4 855.87 739.4 855.88 738.37 855.88 C737.31 855.88 736.25 855.87 735.16 855.87 C731.58 855.86 728.01 855.87 724.44 855.87 C721.89 855.87 719.33 855.87 716.78 855.86 C710.55 855.86 704.32 855.86 698.1 855.86 C693.03 855.87 687.97 855.87 682.91 855.87 C682.19 855.87 681.47 855.87 680.73 855.87 C679.27 855.86 677.81 855.86 676.34 855.86 C662.62 855.86 648.91 855.86 635.19 855.87 C623.41 855.88 611.64 855.88 599.86 855.87 C586.2 855.86 572.53 855.86 558.87 855.86 C557.41 855.86 555.95 855.87 554.49 855.87 C553.78 855.87 553.06 855.87 552.32 855.87 C547.27 855.87 542.21 855.87 537.16 855.86 C530.35 855.85 523.55 855.86 516.74 855.87 C514.24 855.87 511.74 855.87 509.24 855.87 C505.83 855.86 502.43 855.87 499.02 855.88 C498.03 855.88 497.03 855.87 496 855.87 C491.36 855.89 487.82 856.07 483.57 858.13 C480.13 858.38 480.13 858.38 476.22 858.36 C475.53 858.36 474.83 858.36 474.12 858.36 C472.66 858.36 471.2 858.35 469.74 858.34 C467.51 858.32 465.28 858.32 463.05 858.32 C451.19 858.28 451.19 858.28 447.57 857.13 C447.57 856.47 447.57 855.81 447.57 855.13 C446.87 855.03 446.17 854.93 445.44 854.82 C436.95 852.79 432.68 847.43 427.76 840.63 C426.14 837.24 425.37 833.79 424.57 830.13 C424.4 829.58 424.23 829.03 424.05 828.46 C423.39 825.26 423.44 822.21 423.44 818.95 C423.44 818.22 423.44 817.49 423.44 816.74 C423.43 814.29 423.43 811.84 423.44 809.38 C423.44 807.61 423.43 805.84 423.43 804.07 C423.43 800.21 423.42 796.35 423.43 792.5 C423.43 786.22 423.42 779.94 423.42 773.66 C423.41 764.55 423.4 755.43 423.4 746.32 C423.39 731.91 423.38 717.49 423.36 703.08 C423.35 698.15 423.35 693.22 423.34 688.29 C423.34 687.06 423.34 685.83 423.33 684.56 C423.32 670.52 423.3 656.49 423.29 642.46 C423.28 640.53 423.28 640.53 423.28 638.57 C423.26 617.79 423.25 597.02 423.24 576.24 C423.23 554.91 423.21 533.57 423.17 512.24 C423.15 499.09 423.14 485.93 423.15 472.77 C423.15 463.75 423.14 454.73 423.12 445.71 C423.1 440.5 423.1 435.3 423.11 430.1 C423.12 425.33 423.11 420.56 423.09 415.79 C423.08 414.07 423.09 412.35 423.09 410.63 C423.15 398.97 422.27 388.52 416.93 377.87 C415.57 375.13 415.57 375.13 415.57 373.13 C414.91 372.8 414.25 372.47 413.57 372.13 C412.56 370.47 411.56 368.8 410.57 367.13 C410.07 366.64 409.58 366.14 409.07 365.63 C407.57 364.13 407.57 364.13 406.24 361.78 C404.52 359.06 402.82 357.34 400.38 355.26 C399.59 354.58 398.8 353.9 397.98 353.2 C397.18 352.52 396.39 351.83 395.57 351.13 C394.85 350.47 394.12 349.81 393.38 349.13 C388.54 344.72 388.54 344.72 382.57 342.13 C382.57 341.47 382.57 340.81 382.57 340.13 C381.85 340.01 381.12 339.89 380.38 339.76 C377.61 339.14 375.17 338.25 372.57 337.13 C372.57 336.47 372.57 335.81 372.57 335.13 C371.89 335.03 371.21 334.93 370.51 334.82 C367.62 334.15 365.13 333.08 362.43 331.89 C356 329.27 349.06 328.55 342.23 327.6 C339.57 327.13 339.57 327.13 338.57 326.13 C336.51 326.01 334.44 325.96 332.38 325.95 C331.25 325.93 330.13 325.92 328.96 325.9 C325.49 326.14 322.84 326.98 319.57 328.13 C316.99 328.47 314.43 328.63 311.84 328.79 C309.29 329.01 309.29 329.01 306.57 331.13 C305.87 331.26 305.17 331.38 304.44 331.51 C301.03 332.25 298.14 333.57 294.98 335.02 C292.59 336.12 290.18 337.16 287.76 338.2 C284.69 339.55 282.23 341.09 279.57 343.13 C278.58 343.13 277.59 343.13 276.57 343.13 C276.36 343.73 276.16 344.33 275.94 344.95 C274.57 347.13 274.57 347.13 271.9 348.35 C267.75 350.57 265.02 353.42 261.82 356.82 C259.77 358.98 257.7 361.07 255.57 363.13 C254.91 363.13 254.25 363.13 253.57 363.13 C253.44 363.9 253.32 364.66 253.19 365.45 C252.57 368.13 252.57 368.13 250.57 371.13 C249.91 371.13 249.25 371.13 248.57 371.13 C248.44 371.86 248.32 372.58 248.19 373.32 C247.58 376.09 246.68 378.53 245.57 381.13 C244.91 381.13 244.25 381.13 243.57 381.13 C243.57 382.78 243.57 384.43 243.57 386.13 C242.91 386.13 242.25 386.13 241.57 386.13 C241.63 387.74 241.63 387.74 241.69 389.38 C241.57 393.13 241.57 393.13 240.58 394.94 C239.16 398.02 239.32 400.61 239.32 403.98 C239.31 405.02 239.31 405.02 239.31 406.08 C239.3 408.41 239.31 410.74 239.31 413.07 C239.31 414.75 239.31 416.44 239.31 418.12 C239.3 422.75 239.3 427.39 239.31 432.02 C239.31 437.01 239.3 442 239.3 447 C239.29 456.78 239.29 466.57 239.3 476.35 C239.3 484.31 239.3 492.26 239.3 500.21 C239.3 501.9 239.3 501.9 239.3 503.63 C239.3 505.93 239.3 508.23 239.3 510.52 C239.29 532.07 239.3 553.62 239.31 575.16 C239.32 593.66 239.32 612.16 239.31 630.66 C239.3 652.13 239.29 673.59 239.3 695.06 C239.3 697.35 239.3 699.64 239.3 701.92 C239.3 703.05 239.3 704.18 239.3 705.34 C239.3 713.28 239.3 721.22 239.3 729.17 C239.29 738.85 239.29 748.52 239.3 758.2 C239.31 763.14 239.31 768.08 239.3 773.02 C239.3 777.54 239.3 782.06 239.31 786.58 C239.31 788.22 239.31 789.86 239.31 791.49 C239.3 793.72 239.31 795.94 239.32 798.16 C239.32 799.39 239.32 800.63 239.32 801.9 C239.57 805.1 240.23 807.24 241.57 810.13 C244.53 819.19 245 829.17 241.57 838.13 C240.58 838.13 239.59 838.13 238.57 838.13 C238.9 839.45 239.23 840.77 239.57 842.13 C237.92 843.12 236.27 844.11 234.57 845.13 C233.58 844.47 232.59 843.81 231.57 843.13 C232.23 844.45 232.89 845.77 233.57 847.13 C230.71 851.21 228.21 853.3 223.57 855.13 C222.25 855.13 220.93 855.13 219.57 855.13 C219.57 855.79 219.57 856.45 219.57 857.13 C214.71 858.75 209.72 858.32 204.63 858.32 C203.53 858.33 202.44 858.35 201.3 858.36 C199.72 858.36 199.72 858.36 198.1 858.36 C197.14 858.37 196.17 858.37 195.18 858.38 C192.57 858.13 192.57 858.13 190.89 857.13 C187.57 855.7 184.34 855.86 180.79 855.88 C179.6 855.88 179.6 855.88 178.4 855.87 C175.75 855.86 173.11 855.87 170.46 855.87 C168.57 855.87 166.67 855.87 164.77 855.86 C159.62 855.86 154.47 855.86 149.32 855.87 C143.94 855.87 138.55 855.87 133.16 855.86 C124.12 855.86 115.07 855.86 106.03 855.87 C95.56 855.88 85.1 855.88 74.64 855.87 C65.66 855.86 56.68 855.86 47.71 855.86 C42.34 855.87 36.98 855.87 31.61 855.86 C26.57 855.86 21.53 855.86 16.48 855.87 C14.63 855.87 12.78 855.87 10.92 855.87 C8.4 855.86 5.87 855.87 3.35 855.88 C2.61 855.88 1.88 855.87 1.12 855.87 C-2.61 855.89 -5.22 856.21 -8.43 858.13 C-10.87 858.38 -10.87 858.38 -13.56 858.36 C-15.02 858.36 -15.02 858.36 -16.51 858.36 C-17.51 858.35 -18.52 858.33 -19.56 858.32 C-20.57 858.32 -21.59 858.32 -22.63 858.32 C-30.15 858.27 -30.15 858.27 -32.43 857.13 C-32.43 856.47 -32.43 855.81 -32.43 855.13 C-33.75 855.46 -35.07 855.79 -36.43 856.13 C-36.76 855.14 -37.09 854.15 -37.43 853.13 C-38.76 852.78 -40.09 852.45 -41.43 852.13 C-43.78 850.05 -45.62 847.7 -47.43 845.13 C-47.93 844.45 -48.42 843.77 -48.93 843.07 C-53.4 834.32 -53.86 825.34 -53.8 815.69 C-53.81 814.35 -53.81 813.02 -53.81 811.68 C-53.82 808.03 -53.82 804.38 -53.8 800.73 C-53.8 796.75 -53.8 792.77 -53.81 788.8 C-53.82 781.83 -53.81 774.86 -53.8 767.9 C-53.79 757.54 -53.79 747.18 -53.79 736.82 C-53.8 719.39 -53.79 701.96 -53.78 684.54 C-53.76 667.28 -53.76 650.02 -53.76 632.77 C-53.76 631.69 -53.76 630.62 -53.75 629.51 C-53.75 625.16 -53.75 620.8 -53.75 616.44 C-53.75 576.75 -53.74 537.05 -53.71 497.35 C-53.69 459.86 -53.68 422.37 -53.67 384.87 C-53.67 383.72 -53.67 382.56 -53.67 381.37 C-53.67 376.71 -53.67 372.05 -53.67 367.39 C-53.67 365.07 -53.67 362.75 -53.67 360.43 C-53.67 358.11 -53.67 355.8 -53.67 353.48 C-53.67 316.64 -53.65 279.79 -53.64 242.95 C-53.64 232.16 -53.63 221.36 -53.63 210.57 C-53.63 187.87 -53.62 165.18 -53.6 142.48 C-53.6 133.09 -53.59 123.7 -53.59 114.31 C-53.59 106.53 -53.59 98.75 -53.58 90.97 C-53.57 87.05 -53.57 83.13 -53.57 79.21 C-53.58 75 -53.57 70.79 -53.56 66.58 C-53.56 65.34 -53.57 64.11 -53.57 62.84 C-53.57 61.73 -53.56 60.61 -53.56 59.46 C-53.56 58.5 -53.56 57.53 -53.56 56.54 C-53.21 49.9 -49.2 35.91 -44.43 31.13 C-43.96 29.96 -43.48 28.78 -42.99 27.57 C-42.22 25.87 -42.22 25.87 -41.43 24.13 C-40.44 23.8 -39.45 23.47 -38.43 23.13 C-38.35 22.41 -38.28 21.68 -38.2 20.93 C-37.24 17.43 -35.75 15.92 -33.18 13.38 C-32.03 12.22 -32.03 12.22 -30.85 11.02 C-28.28 9.02 -26.64 8.48 -23.43 8.13 C-23.43 7.47 -23.43 6.81 -23.43 6.13 C-19.71 4.62 -15.97 3.21 -12.2 1.82 C-7.97 0.18 -4.56 -0.01 0 0 Z M8.57 70.13 C9.57 72.13 9.57 72.13 9.57 72.13 Z M6.57 63.13 C7.2 67.11 7.2 67.11 9.57 69.13 C9.82 71.28 9.82 71.28 9.82 74.01 C9.83 75.04 9.84 76.08 9.84 77.15 C9.84 78.3 9.83 79.45 9.83 80.64 C9.83 81.86 9.84 83.08 9.84 84.34 C9.85 87.75 9.85 91.16 9.85 94.57 C9.85 98.27 9.86 101.97 9.86 105.67 C9.88 112.17 9.88 118.66 9.88 125.16 C9.89 134.82 9.9 144.48 9.91 154.14 C9.94 170.38 9.95 186.63 9.97 202.87 C9.98 218.96 9.99 235.05 10.01 251.15 C10.01 252.15 10.01 253.15 10.01 254.18 C10.02 259.25 10.03 264.33 10.03 269.4 C10.08 305.38 10.12 341.35 10.15 377.33 C10.18 412.29 10.21 447.24 10.25 482.2 C10.25 483.28 10.25 484.35 10.25 485.46 C10.27 496.28 10.28 507.09 10.29 517.91 C10.32 539.94 10.34 561.97 10.37 584 C10.37 585.02 10.37 586.03 10.37 587.07 C10.41 618.14 10.44 649.2 10.47 680.26 C10.47 681.58 10.47 681.58 10.47 682.93 C10.5 718.66 10.54 754.4 10.57 790.13 C64.36 790.13 118.15 790.13 173.57 790.13 C173.59 778.51 173.61 766.89 173.63 754.92 C173.69 717.72 173.77 680.52 173.85 643.33 C173.86 637.55 173.87 631.77 173.89 625.99 C173.89 624.84 173.89 623.68 173.89 622.5 C173.93 603.88 173.97 585.26 174 566.64 C174.03 547.52 174.07 528.41 174.11 509.3 C174.14 497.51 174.16 485.72 174.18 473.93 C174.19 465.84 174.2 457.75 174.23 449.66 C174.24 445 174.25 440.33 174.25 435.67 C174.25 431.39 174.26 427.11 174.28 422.84 C174.29 421.3 174.29 419.76 174.29 418.22 C174.28 409.75 174.73 401.55 176.09 393.17 C176.66 389.53 177.02 385.89 177.32 382.22 C177.74 378.7 178.59 376.1 180.13 372.88 C181.92 368.87 181.8 365.49 181.57 361.13 C182.23 361.13 182.89 361.13 183.57 361.13 C183.86 360.41 184.15 359.69 184.44 358.95 C184.81 358.02 185.19 357.09 185.57 356.13 C185.9 355.27 186.23 354.4 186.57 353.51 C187.57 351.13 187.57 351.13 189.57 348.13 C190.24 346.47 190.91 344.8 191.57 343.13 C193.01 340.12 194.51 337.23 196.26 334.38 C197.74 332.28 197.74 332.28 197.57 330.13 C198.17 329.87 198.76 329.6 199.38 329.32 C202.88 327.42 204.28 325.7 206.1 322.1 C209.04 316.91 213.29 312.98 217.51 308.82 C218.3 308.01 219.1 307.2 219.93 306.37 C220.7 305.59 221.48 304.82 222.28 304.02 C222.99 303.32 223.69 302.62 224.41 301.9 C226.72 300.01 228.8 299.18 231.57 298.13 C234.38 295.74 234.38 295.74 236.57 293.13 C236.57 292.47 236.57 291.81 236.57 291.13 C237.56 291.46 238.55 291.79 239.57 292.13 C241.28 290.86 242.95 289.52 244.57 288.13 C245.31 287.78 246.05 287.43 246.82 287.07 C248.93 286.2 248.93 286.2 249.57 283.13 C250.48 283.2 251.38 283.26 252.32 283.32 C255.86 283.12 257.09 282.61 259.57 280.13 C259.57 279.47 259.57 278.81 259.57 278.13 C260.41 278.2 261.26 278.26 262.13 278.32 C267.49 278.03 271.87 275.57 276.57 273.13 C277.89 272.45 279.23 271.78 280.57 271.13 C281.29 270.78 282.01 270.43 282.76 270.07 C286.02 268.98 289.06 268.71 292.48 268.48 C294.87 268.23 294.87 268.23 297.57 266.13 C299.79 265.75 299.79 265.75 302.19 265.57 C305.18 265.54 305.18 265.54 307.57 264.13 C310.22 263.9 312.85 263.71 315.51 263.57 C316.25 263.53 316.99 263.48 317.75 263.44 C323.12 263.13 323.12 263.13 325.57 263.13 C326.37 262.95 327.18 262.76 328.01 262.57 C330.57 262.13 330.57 262.13 333.57 263.13 C336.36 263.32 339.15 263.46 341.94 263.57 C353.21 264.12 363.85 265.53 374.57 269.13 C375.59 269.47 376.62 269.8 377.68 270.15 C385.65 272.76 385.65 272.76 389.26 274.23 C391.56 275.22 391.56 275.22 394.13 275.57 C396.99 276.23 398.25 277.35 400.57 279.13 C402.45 280.09 404.33 281.04 406.22 281.97 C419.18 288.39 419.18 288.39 422.44 291.95 C424.84 294.41 426.2 294.85 429.57 295.13 C429.57 295.79 429.57 296.45 429.57 297.13 C430.23 297.13 430.89 297.13 431.57 297.13 C431.57 297.79 431.57 298.45 431.57 299.13 C434.38 301.41 434.38 301.41 437.57 301.13 C437.57 301.79 437.57 302.45 437.57 303.13 C439.12 304.67 439.12 304.67 441.13 306.26 C444.8 309.36 447.94 312.67 451.03 316.34 C452.48 318.03 453.9 319.65 455.57 321.13 C456.23 321.13 456.89 321.13 457.57 321.13 C457.83 321.86 458.09 322.59 458.37 323.34 C459.58 326.17 461 328.34 462.82 330.82 C471.52 342.98 471.52 342.98 473.57 349.13 C474.23 349.13 474.89 349.13 475.57 349.13 C475.69 350.27 475.82 351.4 475.94 352.57 C476.25 354.33 476.25 354.33 476.57 356.13 C477.23 356.46 477.89 356.79 478.57 357.13 C479.38 359.82 479.38 359.82 480.13 363.13 C480.72 366.94 480.72 366.94 482.57 370.13 C482.94 371.6 483.26 373.09 483.57 374.57 C484.06 376.98 484.47 378.93 485.57 381.13 C485.77 383.28 485.93 385.42 486.07 387.57 C486.28 391.03 486.47 393.84 487.57 397.13 C487.66 399.3 487.7 401.47 487.7 403.63 C487.7 404.3 487.7 404.97 487.7 405.65 C487.71 407.9 487.71 410.15 487.71 412.4 C487.71 414.02 487.71 415.65 487.72 417.27 C487.72 421.74 487.72 426.21 487.73 430.68 C487.73 435.49 487.73 440.31 487.74 445.13 C487.75 453.47 487.76 461.82 487.77 470.17 C487.78 483.36 487.8 496.54 487.82 509.73 C487.83 514.24 487.84 518.75 487.84 523.26 C487.84 524.38 487.85 525.51 487.85 526.67 C487.87 539.5 487.89 552.33 487.91 565.16 C487.91 566.33 487.91 567.5 487.91 568.71 C487.94 587.74 487.96 606.77 487.97 625.79 C487.99 645.31 488.02 664.82 488.06 684.34 C488.08 696.39 488.1 708.43 488.1 720.48 C488.1 728.73 488.11 736.98 488.13 745.23 C488.15 750 488.15 754.76 488.15 759.53 C488.14 763.88 488.15 768.24 488.17 772.6 C488.17 774.18 488.17 775.76 488.17 777.34 C488.16 779.48 488.17 781.62 488.19 783.76 C488.19 784.95 488.19 786.14 488.19 787.37 C488.32 788.28 488.44 789.19 488.57 790.13 C489.56 790.79 490.55 791.45 491.57 792.13 C492.56 791.8 493.55 791.47 494.57 791.13 C495.95 791.04 497.33 791 498.72 791 C499.57 790.99 500.41 790.98 501.29 790.98 C502.22 790.98 503.16 790.98 504.12 790.98 C505.11 790.97 506.1 790.97 507.12 790.96 C510.45 790.95 513.79 790.94 517.12 790.93 C519.51 790.92 521.89 790.91 524.28 790.9 C530.09 790.87 535.9 790.85 541.72 790.84 C548.48 790.82 555.24 790.79 562.01 790.76 C574.07 790.71 586.13 790.67 598.19 790.63 C609.91 790.59 621.62 790.55 633.34 790.51 C634.42 790.5 634.42 790.5 635.53 790.5 C639.15 790.48 642.77 790.47 646.39 790.46 C676.45 790.34 706.51 790.24 736.57 790.13 C736.61 731.2 736.65 672.27 736.67 613.34 C736.67 606.38 736.68 599.41 736.68 592.45 C736.68 591.76 736.68 591.07 736.68 590.35 C736.69 567.93 736.7 545.5 736.72 523.07 C736.74 499.36 736.75 475.64 736.76 451.93 C736.76 437.73 736.77 423.53 736.78 409.34 C736.79 399.59 736.8 389.85 736.8 380.11 C736.79 374.49 736.8 368.88 736.81 363.26 C736.82 358.11 736.82 352.95 736.81 347.8 C736.81 345.95 736.81 344.09 736.82 342.24 C736.86 330.39 736.11 318.88 734.57 307.13 C734.37 305.57 734.37 305.57 734.17 303.97 C732.78 293.08 730.68 282.67 727.57 272.13 C727.18 270.74 726.8 269.35 726.41 267.96 C723.3 256.8 719.59 245.92 714.32 235.57 C712.73 232.46 711.57 229.47 710.57 226.13 C709.91 226.13 709.25 226.13 708.57 226.13 C708.42 225.54 708.28 224.94 708.13 224.32 C707.68 222.57 707.14 220.85 706.57 219.13 C705.91 219.13 705.25 219.13 704.57 219.13 C704.9 218.14 705.23 217.15 705.57 216.13 C704.91 216.13 704.25 216.13 703.57 216.13 C703.32 215.28 703.07 214.42 702.81 213.54 C701.47 209.86 699.73 206.88 697.63 203.57 C696.94 202.48 696.25 201.38 695.54 200.25 C694.56 198.71 694.56 198.71 693.57 197.13 C693.05 196.25 692.53 195.36 692 194.45 C690.68 192.31 689.31 190.55 687.63 188.7 C684.98 185.67 682.77 182.51 680.57 179.13 C678.56 176.33 678.56 176.33 676.57 174.13 C675.91 174.13 675.25 174.13 674.57 174.13 C674.42 173.33 674.27 172.53 674.12 171.7 C671.81 166.39 667.89 163.04 663.76 159.07 C662.54 157.89 662.54 157.89 661.31 156.68 C659.75 155.16 658.19 153.64 656.62 152.12 C654.97 150.52 653.34 148.91 651.72 147.27 C649.3 144.87 646.75 142.72 644.12 140.56 C642.57 139.13 642.57 139.13 640.57 136.13 C636.98 133.94 633.36 131.95 629.57 130.13 C629.57 129.47 629.57 128.81 629.57 128.13 C627.93 127.09 626.26 126.1 624.57 125.13 C622.64 123.8 620.72 122.45 618.82 121.07 C617.37 120.03 617.37 120.03 615.9 118.97 C613.57 117.13 613.57 117.13 612.57 115.13 C610.92 114.43 609.27 113.73 607.61 113.06 C604.66 111.72 602.05 109.94 599.37 108.12 C597.47 106.89 597.47 106.89 594.57 107.13 C594.32 106.49 594.07 105.85 593.82 105.2 C592.77 102.94 592.77 102.94 590.51 102.51 C589.55 102.32 589.55 102.32 588.57 102.13 C588.24 101.47 587.91 100.81 587.57 100.13 C585.92 100.13 584.27 100.13 582.57 100.13 C582.57 99.47 582.57 98.81 582.57 98.13 C581.61 97.95 581.61 97.95 580.63 97.76 C579.95 97.55 579.27 97.35 578.57 97.13 C578.24 96.47 577.91 95.81 577.57 95.13 C575.92 95.13 574.27 95.13 572.57 95.13 C572.57 94.47 572.57 93.81 572.57 93.13 C568.61 92.64 568.61 92.64 564.57 92.13 C564.57 91.47 564.57 90.81 564.57 90.13 C563.41 89.75 563.41 89.75 562.22 89.36 C556.29 87.4 550.4 85.38 544.57 83.13 C543.6 82.76 542.63 82.39 541.63 82.01 C539.57 81.13 539.57 81.13 538.57 80.13 C535.24 79.48 531.91 78.89 528.56 78.33 C522.95 77.34 522.95 77.34 520.7 76.15 C518 74.86 515.52 74.52 512.56 74.1 C511.41 73.93 510.26 73.76 509.07 73.58 C507.87 73.42 506.68 73.25 505.44 73.07 C503.07 72.73 500.69 72.38 498.31 72.04 C497.26 71.89 496.2 71.74 495.12 71.58 C492.57 71.13 492.57 71.13 490.57 70.13 C486.51 69.76 482.43 69.69 478.36 69.55 C477.11 69.51 475.87 69.47 474.58 69.42 C461.63 69.03 448.7 69.13 435.74 69.38 C431.82 69.45 427.89 69.5 423.96 69.55 C421.43 69.6 418.9 69.64 416.37 69.68 C414.63 69.71 414.63 69.71 412.87 69.73 C407.18 69.85 401.94 70.29 396.42 71.68 C394.21 72.22 392.09 72.43 389.82 72.51 C389.05 72.55 388.27 72.58 387.48 72.62 C386.7 72.64 385.93 72.67 385.13 72.7 C379.68 72.66 379.68 72.66 374.57 74.13 C371.24 74.37 367.93 74.53 364.6 74.65 C360.47 74.85 357.35 75.54 353.57 77.13 C351.49 77.39 349.41 77.58 347.32 77.7 C343.63 77.61 343.63 77.61 340.57 79.13 C339.18 79.32 337.78 79.46 336.38 79.57 C333.54 79.85 331.3 80.22 328.57 81.13 C326.01 81.99 324.21 82.3 321.57 82.51 C316.12 83.01 311.09 84.66 305.87 86.22 C303.24 86.95 300.89 87.45 298.19 87.7 C294.62 88.13 292.01 89.03 288.72 90.38 C285.48 91.52 282.15 92.05 278.77 92.61 C276.3 93.06 276.3 93.06 273.57 95.13 C272.25 95.13 270.93 95.13 269.57 95.13 C269.57 95.79 269.57 96.45 269.57 97.13 C268.43 97.22 267.3 97.3 266.13 97.38 C261.88 97.9 258.53 99.38 254.69 101.21 C252.03 102.37 249.45 102.84 246.57 103.13 C246.57 103.79 246.57 104.45 246.57 105.13 C244.92 105.13 243.27 105.13 241.57 105.13 C241.57 105.79 241.57 106.45 241.57 107.13 C238.1 107.63 238.1 107.63 234.57 108.13 C234.57 108.79 234.57 109.45 234.57 110.13 C232.92 110.13 231.27 110.13 229.57 110.13 C229.57 110.79 229.57 111.45 229.57 112.13 C224.62 113.62 224.62 113.62 219.57 115.13 C219.57 115.79 219.57 116.45 219.57 117.13 C218.71 117.34 217.86 117.54 216.98 117.75 C215.32 118.16 215.32 118.16 213.63 118.57 C212.53 118.84 211.43 119.1 210.29 119.38 C207.67 119.86 207.67 119.86 206.57 121.13 C198.46 122.06 191.15 119.94 184.57 115.13 C175.52 106.74 174.65 92.87 174.17 81.2 C174.1 79.31 174.03 77.41 173.96 75.52 C173.91 74.16 173.91 74.16 173.85 72.77 C173.82 71.95 173.79 71.14 173.76 70.29 C173.64 67.95 173.64 67.95 172.57 65.13 C171.25 65.13 169.93 65.13 168.57 65.13 C168.24 64.47 167.91 63.81 167.57 63.13 C114.44 63.13 61.31 63.13 6.57 63.13 Z M267.57 93.13 C267.24 94.12 266.91 95.11 266.57 96.13 C267.56 95.8 268.55 95.47 269.57 95.13 C269.57 94.47 269.57 93.81 269.57 93.13 C268.91 93.13 268.25 93.13 267.57 93.13 Z M205.57 118.13 C206.57 120.13 206.57 120.13 206.57 120.13 Z M203.57 119.13 C203.57 119.79 203.57 120.45 203.57 121.13 C204.23 120.8 204.89 120.47 205.57 120.13 C204.91 119.8 204.25 119.47 203.57 119.13 Z M298.57 329.13 C298.57 329.79 298.57 330.45 298.57 331.13 C299.23 330.8 299.89 330.47 300.57 330.13 C299.91 329.8 299.25 329.47 298.57 329.13 Z M279.57 338.13 C279.24 339.12 278.91 340.11 278.57 341.13 C279.56 340.8 280.55 340.47 281.57 340.13 C281.57 339.47 281.57 338.81 281.57 338.13 C280.91 338.13 280.25 338.13 279.57 338.13 Z M265.57 348.13 C266.57 350.13 266.57 350.13 266.57 350.13 Z M263.57 349.13 C262.91 350.45 262.25 351.77 261.57 353.13 C262.89 352.47 264.21 351.81 265.57 351.13 C264.91 350.47 264.25 349.81 263.57 349.13 Z M257.57 355.13 C257.57 356.12 257.57 357.11 257.57 358.13 C258.23 357.8 258.89 357.47 259.57 357.13 C259.57 356.47 259.57 355.81 259.57 355.13 C258.91 355.13 258.25 355.13 257.57 355.13 Z M791.57 838.13 C791.9 839.12 792.23 840.11 792.57 841.13 C793.23 840.8 793.89 840.47 794.57 840.13 C794.57 839.47 794.57 838.81 794.57 838.13 C793.58 838.13 792.59 838.13 791.57 838.13 Z M234.57 840.13 C234.57 841.12 234.57 842.11 234.57 843.13 C235.23 842.8 235.89 842.47 236.57 842.13 C236.57 841.47 236.57 840.81 236.57 840.13 C235.91 840.13 235.25 840.13 234.57 840.13 Z M790.57 840.13 C791.57 842.13 791.57 842.13 791.57 842.13 Z " fill="#FAFCFC" transform="translate(480.4315643310547,418.8662872314453)"/>
<path d="M0 0 C1.41 -0 1.41 -0 2.84 -0.01 C4.38 -0.01 4.38 -0.01 5.95 -0.01 C7.59 -0.01 7.59 -0.01 9.26 -0.01 C12.94 -0.02 16.61 -0.02 20.29 -0.02 C22.92 -0.02 25.55 -0.02 28.18 -0.03 C34.58 -0.04 40.99 -0.04 47.4 -0.04 C52.61 -0.04 57.82 -0.04 63.03 -0.04 C77.8 -0.05 92.58 -0.06 107.35 -0.06 C108.14 -0.06 108.94 -0.06 109.76 -0.06 C110.56 -0.06 111.36 -0.06 112.18 -0.06 C125.1 -0.06 138.02 -0.07 150.94 -0.08 C164.21 -0.09 177.48 -0.1 190.75 -0.1 C198.19 -0.1 205.64 -0.1 213.09 -0.11 C219.43 -0.12 225.78 -0.12 232.12 -0.12 C235.35 -0.11 238.59 -0.12 241.82 -0.12 C245.33 -0.13 248.84 -0.13 252.35 -0.12 C253.37 -0.12 254.39 -0.13 255.44 -0.13 C260.82 -0.11 265.25 0.37 270.34 2.13 C271.53 2.46 271.53 2.46 272.75 2.8 C277.32 4.19 280.88 5.89 284.64 8.85 C286.4 10.23 286.4 10.23 288.72 11.48 C291.71 13.36 293.98 15.5 296.47 18 C297.74 19.27 297.74 19.27 299.04 20.56 C301.23 23 302.76 25.26 304.34 28.13 C305.21 29.66 305.21 29.66 306.1 31.21 C306.69 32.3 307.29 33.39 307.9 34.5 C308.5 35.58 309.1 36.66 309.72 37.78 C312.09 42.68 313.46 47.52 313.9 52.94 C314.17 56.16 314.17 56.16 315.34 59.13 C315.44 60.84 315.47 62.56 315.47 64.28 C315.47 65.93 315.47 65.93 315.47 67.61 C315.47 68.83 315.47 70.05 315.46 71.31 C315.47 72.6 315.47 73.89 315.47 75.22 C315.47 78.84 315.47 82.45 315.46 86.07 C315.46 89.99 315.46 93.91 315.46 97.83 C315.47 104.72 315.47 111.6 315.46 118.48 C315.46 128.72 315.45 138.95 315.46 149.19 C315.46 166.4 315.45 183.62 315.45 200.83 C315.44 217.88 315.44 234.93 315.44 251.99 C315.44 253.04 315.44 254.1 315.44 255.19 C315.44 260.57 315.44 265.95 315.44 271.33 C315.43 309.45 315.43 347.57 315.42 385.7 C315.41 422.74 315.4 459.78 315.4 496.82 C315.4 497.96 315.4 499.1 315.4 500.28 C315.4 511.74 315.39 523.2 315.39 534.66 C315.39 558.01 315.39 581.35 315.38 604.7 C315.38 605.77 315.38 606.85 315.38 607.95 C315.37 679.68 315.36 751.4 315.34 823.13 C314.68 823.13 314.02 823.13 313.34 823.13 C313.67 824.45 314 825.77 314.34 827.13 C313.35 827.46 312.36 827.79 311.34 828.13 C311.01 829.78 310.68 831.43 310.34 833.13 C309.68 833.13 309.02 833.13 308.34 833.13 C308.67 834.45 309 835.77 309.34 837.13 C308.35 837.46 307.36 837.79 306.34 838.13 C306.24 839.2 306.24 839.2 306.14 840.3 C305.09 844.02 303.27 845.73 300.53 848.44 C299.66 849.32 298.78 850.21 297.88 851.12 C295.34 853.13 295.34 853.13 291.34 853.13 C291.01 854.12 290.68 855.11 290.34 856.13 C289.02 855.8 287.7 855.47 286.34 855.13 C286.34 855.79 286.34 856.45 286.34 857.13 C282.35 859.12 277.29 858.31 272.9 858.32 C271.84 858.33 270.78 858.34 269.68 858.35 C268.66 858.36 267.65 858.36 266.6 858.36 C265.66 858.36 264.73 858.37 263.76 858.37 C261.34 858.13 261.34 858.13 258.34 856.13 C256.29 855.83 256.29 855.83 254 855.88 C253.11 855.87 252.21 855.87 251.29 855.86 C250.31 855.87 249.33 855.87 248.32 855.87 C247.28 855.87 246.24 855.87 245.16 855.87 C241.66 855.86 238.15 855.86 234.64 855.87 C232.13 855.87 229.63 855.86 227.12 855.86 C221 855.85 214.89 855.85 208.77 855.86 C203.8 855.86 198.84 855.86 193.87 855.86 C193.16 855.86 192.45 855.86 191.73 855.86 C190.29 855.86 188.86 855.86 187.42 855.86 C173.96 855.85 160.49 855.86 147.03 855.87 C135.47 855.88 123.91 855.88 112.35 855.87 C98.94 855.86 85.52 855.85 72.11 855.86 C70.68 855.86 69.25 855.86 67.82 855.86 C67.11 855.86 66.41 855.86 65.68 855.86 C60.72 855.86 55.76 855.86 50.79 855.86 C44.11 855.85 37.44 855.85 30.76 855.87 C28.3 855.87 25.85 855.87 23.39 855.86 C20.05 855.86 16.71 855.86 13.36 855.87 C11.89 855.87 11.89 855.87 10.39 855.86 C9.05 855.87 9.05 855.87 7.69 855.88 C6.91 855.88 6.14 855.88 5.35 855.88 C3.03 856.02 3.03 856.02 0.34 858.13 C-2.7 858.61 -5.77 858.54 -8.85 858.57 C-9.67 858.6 -10.5 858.63 -11.35 858.67 C-18.86 858.73 -23.11 855.97 -28.83 851.39 C-41.52 838.73 -39.87 821.1 -39.92 804.29 C-39.92 800.72 -39.92 797.14 -39.91 793.57 C-39.9 789.65 -39.91 785.74 -39.91 781.83 C-39.92 774.98 -39.92 768.14 -39.91 761.29 C-39.9 751.12 -39.9 740.94 -39.91 730.76 C-39.91 713.63 -39.91 696.5 -39.9 679.38 C-39.89 662.41 -39.89 645.45 -39.89 628.49 C-39.89 627.43 -39.89 626.38 -39.89 625.29 C-39.89 621 -39.89 616.71 -39.89 612.43 C-39.89 572.23 -39.88 532.03 -39.86 491.83 C-39.85 456.13 -39.84 420.43 -39.84 384.72 C-39.84 382.43 -39.84 380.14 -39.84 377.84 C-39.84 376.71 -39.84 375.58 -39.84 374.41 C-39.84 368.7 -39.84 363 -39.84 357.29 C-39.84 356.16 -39.84 355.04 -39.84 353.88 C-39.84 324.03 -39.84 294.18 -39.83 264.34 C-39.83 263.27 -39.83 262.21 -39.83 261.12 C-39.83 256.85 -39.83 252.58 -39.83 248.31 C-39.83 233.46 -39.83 218.62 -39.83 203.77 C-39.82 184.64 -39.82 165.5 -39.81 146.37 C-39.81 136.26 -39.8 126.14 -39.8 116.03 C-39.81 109.27 -39.8 102.51 -39.8 95.75 C-39.79 91.9 -39.79 88.05 -39.79 84.2 C-39.8 80.05 -39.79 75.89 -39.79 71.74 C-39.79 70.55 -39.79 69.37 -39.79 68.15 C-39.77 60.11 -39.32 52.14 -38.66 44.13 C-38 44.13 -37.34 44.13 -36.66 44.13 C-37.15 42.64 -37.15 42.64 -37.66 41.13 C-37.03 39.11 -36.36 37.12 -35.66 35.13 C-34.93 32.14 -34.29 29.14 -33.66 26.13 C-33 26.13 -32.34 26.13 -31.66 26.13 C-31.55 25.43 -31.45 24.73 -31.35 24 C-29.77 17.43 -26.74 13.99 -21.64 9.81 C-19.45 8.03 -19.45 8.03 -17.03 5.19 C-14.66 3.13 -14.66 3.13 -11.35 2.82 C-10.46 2.92 -9.57 3.02 -8.66 3.13 C-8.66 2.47 -8.66 1.81 -8.66 1.13 C-5.7 0.28 -3.07 0 0 0 Z M303.34 30.13 C304.34 32.13 304.34 32.13 304.34 32.13 Z M21.34 63.13 C21.34 64.12 21.34 65.11 21.34 66.13 C21.83 66.58 22.32 67.04 22.82 67.5 C24.91 69.73 24.72 71.1 24.72 74.12 C24.73 75.16 24.74 76.2 24.75 77.28 C24.74 78.43 24.73 79.57 24.73 80.76 C24.73 81.98 24.74 83.2 24.74 84.46 C24.75 87.87 24.75 91.28 24.74 94.69 C24.74 98.39 24.75 102.09 24.76 105.79 C24.78 112.29 24.78 118.78 24.78 125.27 C24.77 134.93 24.78 144.59 24.8 154.24 C24.83 170.49 24.84 186.73 24.84 202.97 C24.85 219.06 24.86 235.15 24.88 251.24 C24.88 252.24 24.88 253.24 24.88 254.26 C24.89 259.34 24.89 264.41 24.9 269.49 C24.94 305.46 24.97 341.43 25 377.4 C25.02 412.35 25.04 447.3 25.08 482.25 C25.08 483.33 25.08 484.4 25.08 485.51 C25.09 496.33 25.11 507.14 25.12 517.95 C25.14 539.98 25.16 562.01 25.18 584.04 C25.18 585.05 25.18 586.07 25.19 587.11 C25.22 618.17 25.24 649.22 25.27 680.28 C25.27 681.16 25.27 682.04 25.27 682.95 C25.3 718.68 25.32 754.4 25.34 790.13 C99.92 790.13 174.5 790.13 251.34 790.13 C251.36 735.2 251.36 735.2 251.37 680.28 C251.37 678.89 251.37 678.89 251.37 677.47 C251.37 646.33 251.38 615.19 251.38 584.04 C251.38 583.03 251.38 582.01 251.38 580.96 C251.39 558.88 251.39 536.81 251.39 514.73 C251.39 503.9 251.4 493.08 251.4 482.25 C251.4 480.63 251.4 480.63 251.4 478.98 C251.4 444.04 251.41 409.09 251.42 374.14 C251.43 338.24 251.43 302.33 251.44 266.43 C251.44 261.37 251.44 256.3 251.44 251.24 C251.44 250.24 251.44 249.24 251.44 248.22 C251.44 232.14 251.44 216.06 251.45 199.98 C251.45 183.83 251.46 167.69 251.46 151.54 C251.45 141.94 251.46 132.33 251.46 122.73 C251.47 116.32 251.47 109.92 251.46 103.51 C251.46 99.86 251.46 96.2 251.47 92.54 C251.47 88.61 251.47 84.69 251.46 80.76 C251.47 79.61 251.47 78.46 251.47 77.28 C251.47 76.24 251.47 75.2 251.47 74.12 C251.47 73.23 251.47 72.33 251.47 71.4 C251.43 68.96 251.43 68.96 250.34 66.13 C244.43 63.3 239.47 62.7 232.99 62.77 C232.08 62.77 231.17 62.76 230.23 62.76 C227.2 62.76 224.18 62.77 221.15 62.79 C218.97 62.79 216.79 62.79 214.61 62.79 C208.71 62.79 202.81 62.8 196.9 62.82 C190.73 62.84 184.56 62.84 178.39 62.85 C166.7 62.86 155.02 62.88 143.34 62.91 C130.03 62.95 116.73 62.96 103.43 62.98 C76.06 63.01 48.7 63.06 21.34 63.13 Z M23.34 69.13 C23.34 306.73 23.34 544.33 23.34 789.13 C23.67 789.13 24 789.13 24.34 789.13 C24.34 551.53 24.34 313.93 24.34 69.13 C24.01 69.13 23.68 69.13 23.34 69.13 Z M302.34 840.13 C302.01 841.12 301.68 842.11 301.34 843.13 C302.33 842.8 303.32 842.47 304.34 842.13 C304.34 841.47 304.34 840.81 304.34 840.13 C303.68 840.13 303.02 840.13 302.34 840.13 Z M297.34 845.13 C297.34 846.12 297.34 847.11 297.34 848.13 C298 847.8 298.66 847.47 299.34 847.13 C299.34 846.47 299.34 845.81 299.34 845.13 C298.68 845.13 298.02 845.13 297.34 845.13 Z M294.34 848.13 C294.01 849.12 293.68 850.11 293.34 851.13 C294.33 850.8 295.32 850.47 296.34 850.13 C295.68 849.47 295.02 848.81 294.34 848.13 Z " fill="#F9FBFB" transform="translate(50.65809345245361,418.8713655471802)"/>
<path d="M0 0 C0.33 0.66 0.66 1.32 1 2 C1.57 1.68 2.14 1.35 2.73 1.02 C5.17 -0.07 6.74 -0.26 9.39 -0.27 C10.25 -0.28 11.12 -0.29 12 -0.3 C12.93 -0.3 13.86 -0.3 14.82 -0.3 C16.28 -0.31 16.28 -0.31 17.77 -0.31 C19.83 -0.32 21.9 -0.32 23.97 -0.32 C27.07 -0.31 30.16 -0.34 33.26 -0.36 C63.31 -0.46 91.53 6.88 118 21 C119.02 21.54 120.04 22.08 121.09 22.63 C137.39 31.38 137.39 31.38 141.1 35.12 C142.95 37.23 142.95 37.23 146 38 C146 38.66 146 39.32 146 40 C146.58 40.25 147.15 40.49 147.75 40.75 C150.31 42.17 151.93 43.93 154 46 C155.1 46.61 155.1 46.61 156.22 47.23 C159.81 49.51 162.59 52.3 165.56 55.31 C166.41 56.15 166.41 56.15 167.27 57 C170.68 60.43 173.37 63.91 176 68 C176.91 68.91 177.81 69.81 178.75 70.75 C179.86 71.86 179.86 71.86 181 73 C181 73.66 181 74.32 181 75 C181.66 75 182.32 75 183 75 C185 78 185 78 185 81 C185.64 81.23 186.28 81.45 186.94 81.69 C189 83 189 83 189.75 85.62 C189.83 86.41 189.92 87.19 190 88 C190.66 88 191.32 88 192 88 C193.34 90.24 194.68 92.49 196 94.75 C196.38 95.38 196.76 96.02 197.16 96.67 C199.18 100.14 200 101.89 200 106 C200.99 106.33 201.98 106.66 203 107 C203.81 108.79 203.81 108.79 204.44 111.06 C205.4 114.24 206.46 117.12 208 120.06 C211.96 127.73 214 135.63 216 144 C216.54 146.19 217.08 148.38 217.62 150.56 C217.86 151.53 218.1 152.5 218.35 153.5 C218.83 155.36 219.4 157.19 220 159 C221.96 170.38 222.29 181.61 222.21 193.13 C222.19 195.85 222.19 198.58 222.19 201.3 C222.18 203.04 222.17 204.78 222.17 206.52 C222.17 207.33 222.17 208.14 222.16 208.97 C222.14 212.23 222.04 214.88 221 218 C220.73 221.03 220.56 224.06 220.38 227.09 C220.01 229.92 219.31 231.52 218 234 C217.66 236.02 217.66 236.02 217.56 238.12 C217.08 243.34 215.6 248.04 214 253 C213.6 254.37 213.2 255.75 212.81 257.12 C212.54 258.07 212.28 259.02 212 260 C211.34 260 210.68 260 210 260 C210.02 260.95 210.04 261.9 210.06 262.88 C210 266 210 266 209 268 C208.34 268 207.68 268 207 268 C207 269.65 207 271.3 207 273 C206.34 273 205.68 273 205 273 C204.67 275.31 204.34 277.62 204 280 C203.34 280 202.68 280 202 280 C201.9 280.7 201.79 281.4 201.69 282.12 C199.7 290.42 193.46 300.58 187.38 306.61 C185.79 308.03 185.79 308.03 185 310.62 C184.67 311.41 184.34 312.19 184 313 C183.01 313.33 182.02 313.66 181 314 C180.01 313.34 179.02 312.68 178 312 C178 312.99 178 313.98 178 315 C178.66 315.33 179.32 315.66 180 316 C175.99 323.55 169.63 329.47 163.69 335.5 C163.16 336.04 162.63 336.58 162.09 337.14 C160.76 338.47 159.39 339.74 158 341 C157.34 341 156.68 341 156 341 C155.67 341.99 155.34 342.98 155 344 C153.35 344.33 151.7 344.66 150 345 C149.67 345.99 149.34 346.98 149 348 C147.33 349.72 147.33 349.72 145.25 351.5 C144.57 352.09 143.9 352.68 143.2 353.28 C138.42 357.01 132.96 359.66 127.62 362.5 C125 363.92 125 363.92 122.85 365.69 C121 367 121 367 118 367 C118 367.66 118 368.32 118 369 C117.13 369.33 116.26 369.65 115.37 369.99 C114.21 370.43 113.06 370.86 111.88 371.31 C110.74 371.74 109.6 372.17 108.43 372.61 C105.19 373.92 102.12 375.42 99 377 C97.01 377.71 95.01 378.37 93 379 C91.5 379.5 90 380 88.5 380.5 C87 381 85.5 381.5 84 382 C83.06 382.34 82.11 382.68 81.14 383.03 C77.84 384.05 74.67 384.59 71.25 385.06 C66.98 385.56 66.98 385.56 63 387 C60.48 387.18 57.96 387.33 55.44 387.44 C48.9 387.77 48.9 387.77 42.5 389.06 C33.32 391.43 22.26 390.46 13 389 C12.67 388.67 12.34 388.34 12 388 C9.31 387.76 6.64 387.58 3.94 387.44 C3.18 387.39 2.42 387.35 1.64 387.31 C-0.24 387.2 -2.12 387.1 -4 387 C-4 386.34 -4 385.68 -4 385 C-4.68 385.02 -5.35 385.05 -6.05 385.07 C-6.94 385.09 -7.83 385.11 -8.75 385.12 C-9.63 385.15 -10.51 385.17 -11.42 385.2 C-14.2 384.98 -15.55 384.26 -18 383 C-20.36 382.43 -22.74 381.91 -25.12 381.44 C-31.81 380.1 -31.81 380.1 -34 379 C-34 378.34 -34 377.68 -34 377 C-35.65 377 -37.3 377 -39 377 C-39 376.34 -39 375.68 -39 375 C-40.42 375.03 -40.42 375.03 -41.88 375.06 C-45 375 -45 375 -47 374 C-47 373.34 -47 372.68 -47 372 C-47.72 371.88 -48.44 371.75 -49.19 371.62 C-51.96 371.01 -54.4 370.12 -57 369 C-57 368.34 -57 367.68 -57 367 C-57.72 366.88 -58.44 366.75 -59.19 366.62 C-61.96 366.01 -64.4 365.12 -67 364 C-67 363.34 -67 362.68 -67 362 C-67.72 361.91 -68.44 361.83 -69.19 361.74 C-72.59 360.85 -74.34 359.4 -77 357.12 C-80.21 354.4 -83.35 352.1 -87 350 C-88.2 349.23 -89.39 348.44 -90.56 347.62 C-91.12 347.25 -91.68 346.87 -92.25 346.48 C-94 345 -94 345 -95.79 342.73 C-98.07 339.91 -100.5 337.44 -103.1 334.91 C-104.07 333.95 -105.05 332.99 -106.03 332.03 C-107.55 330.54 -109.07 329.06 -110.59 327.58 C-112.08 326.13 -113.56 324.68 -115.04 323.22 C-115.92 322.36 -116.8 321.51 -117.7 320.62 C-120 318 -120 318 -121.62 314.74 C-122.75 311.69 -122.75 311.69 -126 311 C-126 310.01 -126 309.02 -126 308 C-126.66 308 -127.32 308 -128 308 C-128.43 307.09 -128.87 306.19 -129.31 305.25 C-130.84 302.07 -130.84 302.07 -132.69 299.81 C-134 298 -134 298 -134 295 C-134.99 294.67 -135.98 294.34 -137 294 C-138.28 291.84 -139.38 289.76 -140.44 287.5 C-140.75 286.86 -141.05 286.22 -141.37 285.56 C-142.26 283.72 -143.13 281.86 -144 280 C-144.58 278.76 -144.58 278.76 -145.17 277.49 C-146.14 275.34 -147.08 273.17 -148 271 C-148.43 269.99 -148.87 268.97 -149.32 267.93 C-153.03 259.17 -153.03 259.17 -154 255 C-154.45 253.71 -154.91 252.41 -155.38 251.12 C-157.98 243.4 -159.69 235.29 -160.62 227.19 C-160.65 224.14 -160.65 224.14 -162 223 C-162.1 221.27 -162.14 219.54 -162.15 217.81 C-162.15 216.7 -162.16 215.59 -162.16 214.45 C-162.17 213.24 -162.17 212.04 -162.17 210.79 C-162.17 209.56 -162.17 208.33 -162.18 207.06 C-162.18 204.45 -162.19 201.83 -162.19 199.22 C-162.19 196.54 -162.19 193.85 -162.21 191.17 C-162.22 187.32 -162.23 183.46 -162.23 179.61 C-162.24 178.4 -162.24 177.2 -162.25 175.97 C-162.25 174.85 -162.25 173.73 -162.24 172.58 C-162.25 171.1 -162.25 171.1 -162.25 169.6 C-161.99 166.93 -161.36 165.29 -160 163 C-160.66 162.67 -161.32 162.34 -162 162 C-161.34 162 -160.68 162 -160 162 C-160 159.03 -160 156.06 -160 153 C-159.34 153 -158.68 153 -158 153 C-158 152.34 -158 151.68 -158 151 C-158.66 150.67 -159.32 150.34 -160 150 C-159.34 150 -158.68 150 -158 150 C-157.86 148.91 -157.71 147.81 -157.56 146.69 C-157 143 -157 143 -156 140 C-155.26 136.94 -154.53 133.88 -153.82 130.81 C-153 128 -153 128 -151 125 C-150.66 123 -150.33 121 -150 119 C-148.9 116.37 -148.04 115.04 -146 113 C-145.84 112.17 -145.67 111.35 -145.5 110.5 C-145 108 -145 108 -143 106 C-142.3 104.68 -141.64 103.35 -141 102 C-138.03 96.31 -135.17 90.91 -131 86 C-130.29 84.69 -129.61 83.36 -129 82 C-128.34 82 -127.68 82 -127 82 C-126.91 80.92 -126.91 80.92 -126.81 79.81 C-125.75 76.15 -123.7 74.64 -121 72 C-120.73 71.22 -120.46 70.43 -120.19 69.62 C-118.65 66.23 -116.53 64.72 -113.7 62.37 C-110.03 59.15 -106.62 55.71 -103.19 52.25 C-102.53 51.59 -101.87 50.93 -101.19 50.24 C-99.99 49.03 -98.79 47.82 -97.59 46.61 C-96.8 45.81 -96.8 45.81 -96 45 C-95.49 44.47 -94.97 43.93 -94.45 43.38 C-93 42 -93 42 -90.56 40.56 C-87.92 39.1 -87.92 39.1 -85.94 36.81 C-84 35 -84 35 -80 35 C-79.73 34.36 -79.46 33.72 -79.19 33.06 C-78 31 -78 31 -75 30 C-74.67 29.34 -74.34 28.68 -74 28 C-74 28.66 -74 29.32 -74 30 C-73.34 30 -72.68 30 -72 30 C-72 29.34 -72 28.68 -72 28 C-70.75 26.37 -70.75 26.37 -69 25 C-67.68 25 -66.36 25 -65 25 C-65 24.34 -65 23.68 -65 23 C-61.68 21.58 -58.56 20.61 -55 20 C-55 19.34 -55 18.68 -55 18 C-51.68 16.58 -48.56 15.61 -45 15 C-45 14.34 -45 13.68 -45 13 C-44.24 12.88 -43.47 12.75 -42.69 12.62 C-39.8 12.12 -39.8 12.12 -37 10 C-34.74 9.59 -34.74 9.59 -32.31 9.38 C-31.5 9.3 -30.7 9.23 -29.86 9.15 C-29.25 9.1 -28.63 9.05 -28 9 C-28 8.34 -28 7.68 -28 7 C-27.07 6.81 -26.14 6.61 -25.18 6.41 C-17.56 4.87 -17.56 4.87 -10.06 2.81 C-6.61 1.9 -3.56 1.85 0 2 C0 1.34 0 0.68 0 0 Z M4 66 C2.65 66.32 1.3 66.61 -0.06 66.88 C-3.91 67.69 -7.44 68.83 -11.09 70.28 C-14 71.38 -17.01 72.15 -20 73 C-23.06 74.09 -24.7 74.7 -27 77 C-28.31 77.7 -29.65 78.36 -31 79 C-32.07 79.54 -33.14 80.07 -34.25 80.62 C-35.61 81.31 -35.61 81.31 -37 82 C-37 82.66 -37 83.32 -37 84 C-37.85 84.21 -38.69 84.41 -39.56 84.62 C-43.27 86.11 -45.41 87.9 -48.34 90.54 C-51.02 92.89 -53.92 94.54 -57.19 95.94 C-59.14 96.85 -59.14 96.85 -59.84 98.79 C-61.29 101.55 -63.16 103.25 -65.44 105.38 C-68.9 108.74 -70.96 111.61 -73 116 C-73.8 116.58 -74.61 117.16 -75.44 117.75 C-78.74 120.65 -79.61 123.56 -81.01 127.66 C-82.04 130.09 -83.16 131.17 -85 133 C-85.73 136.61 -85.73 136.61 -86 140 C-86.66 140 -87.32 140 -88 140 C-88.98 142.42 -89.95 144.85 -90.92 147.28 C-91.56 148.89 -92.2 150.49 -92.86 152.09 C-94.69 156.66 -95.73 161.16 -96.57 166 C-97 168 -97 168 -98 169 C-98.22 171.61 -98.38 174.2 -98.5 176.81 C-98.82 183.06 -99.26 189.26 -99.91 195.48 C-100.01 198.18 -99.54 200.36 -99 203 C-98.78 206.4 -98.61 209.8 -98.48 213.21 C-98.29 216.99 -97.87 219.71 -96 223 C-95.8 224.93 -95.61 226.86 -95.41 228.79 C-94.8 232.08 -93.36 234.88 -91.91 237.89 C-90.77 240.54 -90.42 243.16 -90 246 C-89.34 246.66 -88.68 247.32 -88 248 C-87.19 250.09 -86.42 252.2 -85.69 254.31 C-83.77 259.44 -82.08 262.31 -78 266 C-76.93 267.69 -75.89 269.4 -74.88 271.12 C-70.78 277.77 -65.63 282.67 -60 288 C-59.14 288.86 -58.28 289.73 -57.4 290.62 C-54.86 293.14 -52.21 295.4 -49.45 297.67 C-48 299 -48 299 -47 301 C-46.22 301.31 -45.43 301.62 -44.62 301.94 C-42 303 -42 303 -40.71 304.37 C-38.38 306.59 -35.82 307.77 -32.94 309.19 C-31.87 309.72 -30.81 310.25 -29.71 310.79 C-27.19 312.14 -27.19 312.14 -25 312 C-24.67 312.66 -24.34 313.32 -24 314 C-21.82 314.91 -19.61 315.73 -17.38 316.5 C-16.17 316.92 -14.96 317.35 -13.71 317.78 C-10.16 318.95 -6.59 319.99 -3 321 C-2.09 321.33 -1.19 321.66 -0.25 322 C8.99 324.84 18.17 325.35 27.79 325.32 C29.87 325.31 31.94 325.34 34.02 325.36 C45.21 325.41 55.37 323.41 65.92 319.7 C69.23 318.59 72.6 317.8 76 317 C76 316.34 76 315.68 76 315 C76.91 315.08 77.81 315.16 78.75 315.25 C82.74 314.94 83.39 313.87 86 311 C88.25 310.25 88.25 310.25 90 310 C90 309.34 90 308.68 90 308 C90.99 308.33 91.98 308.66 93 309 C94.93 307.97 94.93 307.97 96.81 306.38 C97.51 305.82 98.21 305.27 98.93 304.7 C99.61 304.14 100.29 303.58 101 303 C101.92 302.28 101.92 302.28 102.86 301.55 C104.28 300.42 105.65 299.22 107 298 C107 297.34 107 296.68 107 296 C107.81 295.84 108.62 295.68 109.45 295.52 C114.61 293.31 117.87 289.67 121.75 285.69 C122.52 284.93 123.28 284.17 124.07 283.38 C128.23 279.34 128.23 279.34 131.04 274.37 C132 272 132 272 135 270 C135.68 268.34 136.35 266.67 137 265 C137.54 264.48 138.07 263.97 138.62 263.44 C140.46 261.85 140.46 261.85 140 258 C140.99 257.67 141.98 257.34 143 257 C144.02 254.82 144.02 254.82 145 252 C146.01 249.97 147.05 247.97 148.1 245.96 C149.01 243.97 149.48 242.13 150 240 C150.82 237.75 151.66 235.5 152.5 233.25 C154.38 228.04 155.6 223.51 156 218 C156.17 217.2 156.33 216.39 156.5 215.56 C159.82 198.57 158.73 180.79 155 164 C154.83 163.12 154.67 162.25 154.5 161.34 C153.33 155.4 151.52 149.51 149 144 C148.34 143.67 147.68 143.34 147 143 C146.79 141.68 146.79 141.68 146.57 140.34 C145.02 131.32 138.68 123 133 116 C132.31 115.11 131.63 114.21 130.92 113.29 C128.05 109.57 128.05 109.57 125 106 C124.34 106 123.68 106 123 106 C122.67 105.01 122.34 104.02 122 103 C121.34 103 120.68 103 120 103 C120 102.34 120 101.68 120 101 C119.34 101 118.68 101 118 101 C117.67 100.01 117.34 99.02 117 98 C116.34 98 115.68 98 115 98 C115 97.34 115 96.68 115 96 C113.24 94.26 113.24 94.26 111.06 92.5 C107.1 89.2 107.1 89.2 106 87 C104.31 86.27 102.61 85.55 100.9 84.86 C99 84 99 84 95.88 81.88 C93.1 80.06 91.25 79.38 88 79 C88 78.34 88 77.68 88 77 C84.7 76.01 81.4 75.02 78 74 C78 73.34 78 72.68 78 72 C77 71.73 76 71.47 74.96 71.2 C73.62 70.84 72.28 70.48 70.94 70.12 C70.28 69.95 69.62 69.78 68.95 69.6 C63.6 68.17 58.25 66.75 53 65 C27.46 61.54 27.46 61.54 4 66 Z M-34 77 C-34.33 77.99 -34.66 78.98 -35 80 C-34.01 79.67 -33.02 79.34 -32 79 C-32.66 78.34 -33.32 77.68 -34 77 Z M187 84 C188 86 188 86 188 86 Z M-48.62 86.38 C-50.22 87.9 -50.22 87.9 -50 90 C-48 89.21 -48 89.21 -46 88 C-45.67 87.01 -45.34 86.02 -45 85 C-47.1 84.78 -47.1 84.78 -48.62 86.38 Z M192 92 C193 94 193 94 193 94 Z M-60 95 C-59 97 -59 97 -59 97 Z M-61 97 C-60 99 -60 99 -60 99 Z M-66 102 C-65 104 -65 104 -65 104 Z M-74 112 C-73.34 112.66 -72.68 113.32 -72 114 C-72 113.34 -72 112.68 -72 112 C-72.66 112 -73.32 112 -74 112 Z M-84 127 C-84.33 127.99 -84.66 128.98 -85 130 C-84.01 129.67 -83.02 129.34 -82 129 C-82 128.34 -82 127.68 -82 127 C-82.66 127 -83.32 127 -84 127 Z M-93 147 C-92 149 -92 149 -92 149 Z M211 250 C210.67 250.99 210.34 251.98 210 253 C210.99 252.67 211.98 252.34 213 252 C213 251.34 213 250.68 213 250 C212.34 250 211.68 250 211 250 Z M196 287 C196.66 287.66 197.32 288.32 198 289 C198 288.34 198 287.68 198 287 C197.34 287 196.68 287 196 287 Z M186 302 C185.67 302.99 185.34 303.98 185 305 C185.99 304.67 186.98 304.34 188 304 C188 303.34 188 302.68 188 302 C187.34 302 186.68 302 186 302 Z M180 310 C181 312 181 312 181 312 Z M182 310 C183 312 183 312 183 312 Z M161 332 C160.67 332.99 160.34 333.98 160 335 C160.99 334.67 161.98 334.34 163 334 C163 333.34 163 332.68 163 332 C162.34 332 161.68 332 161 332 Z M156 337 C156 337.99 156 338.98 156 340 C156.66 339.67 157.32 339.34 158 339 C158 338.34 158 337.68 158 337 C157.34 337 156.68 337 156 337 Z M153 340 C152.67 340.99 152.34 341.98 152 343 C152.99 342.67 153.98 342.34 155 342 C154.34 341.34 153.68 340.68 153 340 Z M145 345 C145.33 345.99 145.66 346.98 146 348 C146.66 347.67 147.32 347.34 148 347 C148 346.34 148 345.68 148 345 C147.01 345 146.02 345 145 345 Z M133 355 C132.67 355.99 132.34 356.98 132 358 C132.99 357.67 133.98 357.34 135 357 C135 356.34 135 355.68 135 355 C134.34 355 133.68 355 133 355 Z M121 362 C120.67 362.99 120.34 363.98 120 365 C120.99 364.67 121.98 364.34 123 364 C122.34 363.34 121.68 362.68 121 362 Z M102 371 C102 371.66 102 372.32 102 373 C102.66 372.67 103.32 372.34 104 372 C103.34 371.67 102.68 371.34 102 371 Z " fill="#FAFCFC" transform="translate(162,2)"/>
<path d="M0 0 C4.29 0 8.58 0 13 0 C13 0.33 13 0.66 13 1 C8.71 1 4.42 1 0 1 C0 0.67 0 0.34 0 0 Z " fill="#000100" transform="translate(806,745)"/>
<path d="M0 0 C3.3 0 6.6 0 10 0 C10 0.33 10 0.66 10 1 C6.7 1 3.4 1 0 1 C0 0.67 0 0.34 0 0 Z " fill="#000100" transform="translate(884,490)"/>
<path d="M0 0 C2.31 0 4.62 0 7 0 C7 0.33 7 0.66 7 1 C4.69 1 2.38 1 0 1 C0 0.67 0 0.34 0 0 Z " fill="#000100" transform="translate(209,390)"/>
<path d="M0 0 C2.31 0 4.62 0 7 0 C7 0.33 7 0.66 7 1 C4.69 1 2.38 1 0 1 C0 0.67 0 0.34 0 0 Z " fill="#000100" transform="translate(167,390)"/>
<path d="M0 0 C0.33 0 0.66 0 1 0 C1 1.65 1 3.3 1 5 C0.67 5 0.34 5 0 5 C0 3.35 0 1.7 0 0 Z " fill="#FBFDFD" transform="translate(9,1233)"/>
<path d="M0 0 C0.33 0 0.66 0 1 0 C1 1.65 1 3.3 1 5 C0.67 5 0.34 5 0 5 C0 3.35 0 1.7 0 0 Z " fill="#000100" transform="translate(720,816)"/>
<path d="M0 0 C1.65 0 3.3 0 5 0 C5 0.33 5 0.66 5 1 C3.35 1 1.7 1 0 1 C0 0.67 0 0.34 0 0 Z " fill="#000100" transform="translate(839,495)"/>
<path d="M0 0 C0.33 0 0.66 0 1 0 C1 1.65 1 3.3 1 5 C0.67 5 0.34 5 0 5 C0 3.35 0 1.7 0 0 Z " fill="#000100" transform="translate(65,171)"/>
<path d="M0 0 C4 1 4 1 4 1 Z " fill="#000100" transform="translate(969,1275)"/>
<path d="M0 0 C4 1 4 1 4 1 Z " fill="#000100" transform="translate(967,490)"/>
<path d="M0 0 C1 4 1 4 1 4 Z " fill="#000100" transform="translate(65,217)"/>
<path d="" fill="#000100" transform="translate(0,0)"/>
<path d="" fill="#000100" transform="translate(0,0)"/>
<path d="" fill="#000100" transform="translate(0,0)"/>
<path d="" fill="#000100" transform="translate(0,0)"/>
<path d="M0 0 C2 1 2 1 2 1 Z " fill="#FBFDFD" transform="translate(811,679)"/>
<path d="M0 0 C2 1 2 1 2 1 Z " fill="#000100" transform="translate(1017,500)"/>
<path d="M0 0 C2 1 2 1 2 1 Z " fill="#000100" transform="translate(812,500)"/>
<path d="M0 0 C2 1 2 1 2 1 Z " fill="#000100" transform="translate(997,495)"/>
<path d="" fill="#FBFDFD" transform="translate(0,0)"/>
<path d="M0 0 C2 1 2 1 2 1 Z " fill="#000100" transform="translate(142,385)"/>
<path d="" fill="#FBFDFD" transform="translate(0,0)"/>
<path d="" fill="#000100" transform="translate(0,0)"/>
<path d="" fill="#000100" transform="translate(0,0)"/>
<path d="" fill="#000100" transform="translate(0,0)"/>
<path d="" fill="#000100" transform="translate(0,0)"/>
<path d="" fill="#787776" transform="translate(0,0)"/>
<path d="" fill="#787776" transform="translate(0,0)"/>
<path d="" fill="#FBFDFD" transform="translate(0,0)"/>
<path d="" fill="#787776" transform="translate(0,0)"/>
<path d="" fill="#787776" transform="translate(0,0)"/>
<path d="" fill="#787776" transform="translate(0,0)"/>
<path d="" fill="#787776" transform="translate(0,0)"/>
<path d="" fill="#000100" transform="translate(0,0)"/>
<path d="" fill="#000100" transform="translate(0,0)"/>
<path d="" fill="#000100" transform="translate(0,0)"/>
<path d="" fill="#000100" transform="translate(0,0)"/>
<path d="" fill="#FBFDFD" transform="translate(0,0)"/>
<path d="" fill="#000100" transform="translate(0,0)"/>
<path d="" fill="#787776" transform="translate(0,0)"/>
<path d="" fill="#FBFDFD" transform="translate(0,0)"/>
<path d="" fill="#787776" transform="translate(0,0)"/>
<path d="" fill="#FBFDFD" transform="translate(0,0)"/>
<path d="" fill="#FBFDFD" transform="translate(0,0)"/>
<path d="" fill="#787776" transform="translate(0,0)"/>
<path d="" fill="#000100" transform="translate(0,0)"/>
<path d="" fill="#000100" transform="translate(0,0)"/>
<path d="" fill="#FBFDFD" transform="translate(0,0)"/>
<path d="" fill="#FBFDFD" transform="translate(0,0)"/>
<path d="" fill="#FBFDFD" transform="translate(0,0)"/>
<path d="" fill="#FBFDFD" transform="translate(0,0)"/>
<path d="" fill="#FBFDFD" transform="translate(0,0)"/>
<path d="" fill="#FBFDFD" transform="translate(0,0)"/>
<path d="" fill="#000100" transform="translate(0,0)"/>
<path d="" fill="#000100" transform="translate(0,0)"/>
<path d="" fill="#FBFDFD" transform="translate(0,0)"/>
<path d="" fill="#FBFDFD" transform="translate(0,0)"/>
<path d="" fill="#000100" transform="translate(0,0)"/>
<path d="" fill="#000100" transform="translate(0,0)"/>
<path d="" fill="#000100" transform="translate(0,0)"/>
<path d="" fill="#000100" transform="translate(0,0)"/>
<path d="" fill="#000100" transform="translate(0,0)"/>
<path d="" fill="#787776" transform="translate(0,0)"/>
<path d="" fill="#000100" transform="translate(0,0)"/>
<path d="" fill="#000100" transform="translate(0,0)"/>
<path d="" fill="#000100" transform="translate(0,0)"/>
<path d="" fill="#000100" transform="translate(0,0)"/>
<path d="" fill="#000100" transform="translate(0,0)"/>
<path d="" fill="#FBFDFD" transform="translate(0,0)"/>
<path d="" fill="#FBFDFD" transform="translate(0,0)"/>
<path d="" fill="#000100" transform="translate(0,0)"/>
<path d="" fill="#FBFDFD" transform="translate(0,0)"/>
<path d="" fill="#000100" transform="translate(0,0)"/>
<path d="" fill="#000100" transform="translate(0,0)"/>
<path d="" fill="#787776" transform="translate(0,0)"/>
<path d="" fill="#787776" transform="translate(0,0)"/>
<path d="" fill="#787776" transform="translate(0,0)"/>
<path d="" fill="#787776" transform="translate(0,0)"/>
<path d="" fill="#787776" transform="translate(0,0)"/>
<path d="" fill="#787776" transform="translate(0,0)"/>
<path d="" fill="#FBFDFD" transform="translate(0,0)"/>
<path d="" fill="#787776" transform="translate(0,0)"/>
<path d="" fill="#FBFDFD" transform="translate(0,0)"/>
<path d="" fill="#FBFDFD" transform="translate(0,0)"/>
<path d="" fill="#787776" transform="translate(0,0)"/>
<path d="" fill="#FBFDFD" transform="translate(0,0)"/>
<path d="" fill="#FBFDFD" transform="translate(0,0)"/>
<path d="" fill="#FBFDFD" transform="translate(0,0)"/>
<path d="" fill="#FBFDFD" transform="translate(0,0)"/>
<path d="" fill="#000100" transform="translate(0,0)"/>
<path d="" fill="#FBFDFD" transform="translate(0,0)"/>
<path d="" fill="#787776" transform="translate(0,0)"/>
<path d="" fill="#787776" transform="translate(0,0)"/>
<path d="" fill="#000100" transform="translate(0,0)"/>
<path d="" fill="#000100" transform="translate(0,0)"/>
<path d="" fill="#FBFDFD" transform="translate(0,0)"/>
<path d="" fill="#787776" transform="translate(0,0)"/>
<path d="" fill="#000100" transform="translate(0,0)"/>
<path d="" fill="#FBFDFD" transform="translate(0,0)"/>
<path d="" fill="#FBFDFD" transform="translate(0,0)"/>
<path d="" fill="#FBFDFD" transform="translate(0,0)"/>
<path d="" fill="#000100" transform="translate(0,0)"/>
<path d="" fill="#787776" transform="translate(0,0)"/>
<path d="" fill="#FBFDFD" transform="translate(0,0)"/>
<path d="" fill="#FBFDFD" transform="translate(0,0)"/>
<path d="" fill="#787776" transform="translate(0,0)"/>
<path d="" fill="#FBFDFD" transform="translate(0,0)"/>
<path d="" fill="#787776" transform="translate(0,0)"/>
<path d="" fill="#000100" transform="translate(0,0)"/>
<path d="" fill="#000100" transform="translate(0,0)"/>
<path d="" fill="#000100" transform="translate(0,0)"/>
<path d="" fill="#787776" transform="translate(0,0)"/>
</svg>
